<svg width="90" height="91" viewBox="0 0 90 91" fill="none" xmlns="http://www.w3.org/2000/svg">
<path d="M22.0001 74.5001C18.4001 72.5001 19.8334 69.0001 21.0001 67.5001L34.5 29.5001C33.7 31.5001 28.1667 33 25.5 33.5L30.5 39C31.3 39.8 30.1667 41.3333 29.5 42L20.5 51.5C19.2999 51.9 18 51.3333 17.5 51C13.6667 47.3333 5.69998 39.6 4.49998 38.0001C3.29998 36.4001 3.99998 35.3334 4.49998 35L14.5 25C15.7 24.2 17.3333 25.3333 18 26L23.5 31C23.3333 30 23.3 28 24.5 28C26 28 33.5 23.4999 38.5 18.5001C42.5 14.5002 47.1667 16.8334 49 18.5001C57 24.5002 58 20.0001 63.5 18.5001C67.9 17.3001 67.6667 20.6667 67 22.5001C63 28.5001 54.6667 29.6667 51 29.5001L47.5 38.0001C52.3 38.8001 52.8333 44.0001 52.5 46.5001L48 61.5001C46 63.5001 44 63.0001 43 61.5001C42.2 60.3001 43.3333 51.0001 44 46.5001H40L28 70.5001C27.5 72.6667 25.6001 76.5001 22.0001 74.5001Z" fill="#EBB11A"/>
<circle cx="48.5" cy="9.5" r="6.5" fill="#EBB11A"/>
<path d="M31 90.5L40.5 80.5L60.5 61L68 68L83.5 52.5L87.5 56.5L90 41L75 44L78 47.5L67.5 57.5L60.5 51L26 85.5L31 90.5Z" fill="#EBB11A"/>
<path d="M89.4774 37.853C89.0613 37.4371 88.4639 37.257 87.8877 37.3728L72.7394 40.4215C72.1043 40.5495 71.5909 41.0163 71.4035 41.6362C71.2162 42.2564 71.3851 42.9294 71.8431 43.3876L73.8926 45.437L65.8491 53.4805L59.6223 47.2538C59.2926 46.9242 58.8456 46.739 58.3795 46.739C57.9133 46.739 57.4664 46.9242 57.1366 47.2538L49.496 54.8946L52.3621 44.5963C53.0588 42.0929 52.5568 39.4704 50.9849 37.4011C50.0221 36.1338 48.7509 35.1994 47.3138 34.6641L49.605 28.1192C50.2372 28.1747 50.8679 28.203 51.4913 28.203C56.5668 28.203 61.5154 26.414 65.4257 23.166L65.8445 22.8182C67.9061 21.1053 68.2583 18.1287 66.6469 16.042C65.8298 14.9837 64.6489 14.32 63.3219 14.1734C61.9943 14.0266 60.6972 14.4161 59.67 15.2695L59.1942 15.6648C58.493 16.2471 57.7263 16.75 56.9153 17.159C54.205 18.5261 50.8204 17.9172 48.5715 15.6915C51.8428 14.6782 54.2259 11.6244 54.2259 8.02433C54.2261 3.59973 50.6262 0 46.2014 0C41.7764 0 38.1767 3.59973 38.1767 8.02451C38.1767 9.78535 38.7481 11.4144 39.7133 12.739C37.8878 13.132 36.2449 14.0732 34.9878 15.4039C34.9145 15.4683 34.8442 15.5379 34.7805 15.6163C31.6819 19.4223 27.551 22.1524 22.8346 23.5109C21.5577 23.8789 20.547 24.7268 19.9405 25.8018L16.3379 22.1993C14.7616 20.6232 12.1972 20.6234 10.6207 22.1993L5.90609 26.9141L1.19147 31.6287C0.427761 32.3923 0.00732422 33.4073 0.00732422 34.4874C0.00732422 35.5673 0.427937 36.5824 1.1913 37.3461L14.1814 50.3362C14.9451 51.0998 15.9602 51.5202 17.0401 51.5202C18.1202 51.5202 19.1353 51.0996 19.8988 50.3362L24.7804 45.4546L22.4657 51.5242C22.1198 52.4312 22.5747 53.447 23.4816 53.7929C23.6878 53.8714 23.8995 53.9087 24.1077 53.9087C24.8157 53.9087 25.4831 53.4777 25.7505 52.7769L31.5153 37.6607H42.5201H44.4225C45.9128 37.6607 47.2843 38.3413 48.1858 39.5279C49.0873 40.7145 49.3752 42.2184 48.9755 43.6539L44.9816 58.0046C44.8019 58.6504 44.2082 59.1014 43.5378 59.1014C42.9363 59.1014 42.5655 58.772 42.398 58.5757C42.2305 58.3794 41.9633 57.9612 42.0577 57.3675L44.1829 44.007C44.2637 43.4989 44.1179 42.981 43.7839 42.5898C43.4499 42.1985 42.9613 41.9732 42.447 41.9732H38.2799C37.6171 41.9732 37.0105 42.346 36.7113 42.9375C36.6087 43.1403 26.4105 63.3046 22.9739 70.118C22.6299 70.8003 21.882 71.1897 21.1151 71.0847L21.0318 71.0735C20.5085 71.0028 20.054 70.7019 19.7842 70.2479C19.5144 69.7939 19.4678 69.2506 19.6561 68.7574L20.7391 65.9175C21.0851 65.0106 20.6302 63.995 19.7232 63.6489C18.8164 63.303 17.8007 63.758 17.4546 64.6648L16.3715 67.5047C15.7987 69.0068 15.941 70.661 16.762 72.0432C17.5831 73.4253 18.9676 74.3417 20.5593 74.5572L20.6426 74.5683C20.8836 74.6012 21.1237 74.6168 21.3622 74.6168C23.3523 74.6168 25.2031 73.5049 26.1127 71.7012C29.1145 65.7497 37.2782 49.6061 39.3607 45.4885H40.3877L38.5861 56.8152C38.3553 58.2665 38.7701 59.7402 39.7244 60.8579C40.3381 61.5769 41.133 62.0974 42.0129 62.3781L22.4328 81.9581C22.1033 82.2878 21.918 82.7348 21.918 83.2009C21.918 83.6671 22.1033 84.1142 22.4328 84.4438L27.4744 89.4852C27.8177 89.8283 28.2675 90 28.7172 90C29.167 90 29.6168 89.8283 29.9601 89.4852L39.6521 79.7932C40.3385 79.1068 40.3385 77.9938 39.6521 77.3073C38.9656 76.6211 37.853 76.6211 37.1662 77.3073L28.7172 85.7564L26.1616 83.2008L58.3798 50.9822L64.6066 57.2089C64.9363 57.5385 65.3833 57.7237 65.8494 57.7237C66.3156 57.7237 66.7626 57.5385 67.0923 57.2089L77.6213 46.6797C78.3077 45.9933 78.3077 44.8804 77.6213 44.1938L76.6479 43.2204L85.9898 41.3404L84.1098 50.6823L82.663 49.2356C81.9765 48.5494 80.8639 48.5494 80.1772 49.2356L65.8493 63.5635L59.6225 57.3367C58.936 56.6505 57.8233 56.6505 57.1366 57.3367L47.1089 67.3644C46.4225 68.0508 46.4225 69.1638 47.1089 69.8503C47.7954 70.5365 48.908 70.5365 49.5948 69.8503L58.3795 61.0656L64.6062 67.2924C65.2928 67.9786 66.4054 67.9786 67.0921 67.2924L81.42 52.9645L83.943 55.4874C84.401 55.9455 85.0744 56.1148 85.6942 55.927C86.3143 55.7399 86.7813 55.2264 86.9091 54.5912L89.9577 39.4427C90.0738 38.866 89.8934 38.2692 89.4774 37.853ZM46.2014 3.51536C48.6878 3.51536 50.7106 5.53827 50.7106 8.02451C50.7106 10.5109 48.6876 12.5338 46.2014 12.5338C43.715 12.5338 41.6921 10.5109 41.6921 8.02451C41.6921 5.53827 43.715 3.51536 46.2014 3.51536ZM28.8088 34.6702L26.6697 32.5311C27.6857 32.1996 28.6835 31.8205 29.6604 31.3964L28.8088 34.6702ZM22.8768 28.5732C22.6691 27.8522 23.0869 27.0967 23.8079 26.889C26.6973 26.0565 29.3924 24.7713 31.8204 23.0929L30.8279 26.9088C28.8519 28.0007 26.7481 28.8739 24.5605 29.504C24.5199 29.5156 24.4774 29.5258 24.4354 29.5339C24.1111 29.5956 23.7866 29.5311 23.5142 29.3757L22.9993 28.8609C22.9485 28.7711 22.9064 28.6755 22.8768 28.5732ZM13.1062 24.685C13.2091 24.5822 13.3442 24.5309 13.4792 24.5309C13.6142 24.5309 13.7494 24.5822 13.852 24.685L20.2591 31.0921C20.5563 31.498 20.9107 31.8518 21.3099 32.1428L26.8423 37.6753C27.048 37.8808 27.048 38.2154 26.8423 38.4209L23.3706 41.8927L19.5095 38.0316L20.2449 37.2962C20.9313 36.6098 20.9313 35.4968 20.2449 34.8103L16.2883 30.8538C15.6018 30.1676 14.4892 30.1676 13.8025 30.8538L13.0671 31.5892L9.63448 28.1566L13.1062 24.685ZM15.5122 37.0575C15.3439 37.2257 15.1476 37.251 15.0455 37.251C14.9435 37.251 14.7472 37.2257 14.579 37.0577V37.0575L14.0413 36.52C13.8733 36.3518 13.848 36.1554 13.848 36.0535C13.848 35.9514 13.8733 35.755 14.0415 35.5868L15.0455 34.5829L16.5161 36.0535L15.5122 37.0575ZM17.4129 47.8505C17.2851 47.9781 17.1398 48.0048 17.0401 48.0048C16.9406 48.0048 16.7949 47.9781 16.6673 47.8503L3.67718 34.8602C3.5494 34.7324 3.52268 34.5869 3.52268 34.4874C3.52268 34.3878 3.5494 34.2422 3.67718 34.1146L7.14877 30.6428L10.7457 34.2396C10.4759 34.7982 10.3326 35.4148 10.3326 36.0535C10.3326 37.1689 10.7671 38.2174 11.5556 39.0059L12.0931 39.5432V39.5434C12.8816 40.3319 13.9302 40.7664 15.0455 40.7664C15.6842 40.7664 16.3008 40.6233 16.8594 40.3533L20.8849 44.3787L17.4129 47.8505ZM42.5199 34.1454H32.5778L36.1886 20.2645C36.8344 17.7826 39.0763 16.0494 41.6408 16.0494C43.2249 16.0494 44.6903 16.6881 45.7669 17.848C49.0692 21.4062 54.3052 22.4136 58.4988 20.2978C59.5461 19.7697 60.536 19.1209 61.4408 18.369L61.9166 17.9737C62.2035 17.7353 62.5654 17.626 62.9363 17.6678C63.3063 17.7086 63.636 17.8942 63.8648 18.1907C64.3065 18.7625 64.1869 19.6255 63.5984 20.1143L63.1797 20.4622C59.8992 23.1873 55.7482 24.688 51.4915 24.688C50.5671 24.688 49.6224 24.614 48.6832 24.4679C47.845 24.3365 47.0342 24.8237 46.754 25.624L43.7709 34.1454H42.5199Z" fill="#083A5E"/>
<path d="M43.4144 71.8534C42.9522 71.8534 42.4987 72.0413 42.1717 72.3684C41.8448 72.6951 41.6567 73.1486 41.6567 73.6111C41.6567 74.0751 41.8446 74.5268 42.1717 74.8536C42.4987 75.1822 42.9522 75.3687 43.4144 75.3687C43.8767 75.3687 44.3302 75.1822 44.6569 74.8536C44.9839 74.5268 45.1721 74.0749 45.1721 73.6111C45.1721 73.1486 44.984 72.6951 44.6569 72.3684C44.3302 72.0413 43.8767 71.8534 43.4144 71.8534Z" fill="#083A5E"/>
<path d="M21.6 60.4889C22.0622 60.4889 22.5157 60.3008 22.8426 59.9737C23.1694 59.6469 23.3576 59.1935 23.3576 58.7312C23.3576 58.2689 23.1696 57.8154 22.8426 57.4885C22.514 57.1616 22.0622 56.9735 21.6 56.9735C21.1377 56.9735 20.6842 57.1614 20.3555 57.4885C20.0288 57.8154 19.8423 58.2689 19.8423 58.7312C19.8423 59.1935 20.0288 59.6469 20.3555 59.9737C20.6842 60.3006 21.1359 60.4889 21.6 60.4889Z" fill="#083A5E"/>
</svg>
