<svg width="92" height="90" viewBox="0 0 92 90" fill="none" xmlns="http://www.w3.org/2000/svg">
<circle cx="49" cy="47" r="43" fill="#EBB11A"/>
<g clip-path="url(#clip0)">
<path d="M68.1437 81.5653C67.6568 80.7261 66.5815 80.4403 65.7413 80.9272L65.6736 80.9662C64.8341 81.4533 64.5484 82.5289 65.0354 83.3686C65.3614 83.9306 65.9512 84.2445 66.5573 84.2445C66.8564 84.2445 67.1602 84.1677 67.4378 84.0067L67.5054 83.9677C68.345 83.4806 68.6306 82.405 68.1437 81.5653Z" fill="#083A5E"/>
<path d="M83.9696 22.5149C77.961 12.1077 68.2595 4.66359 56.6519 1.55331C45.0448 -1.55696 32.9208 0.039308 22.5136 6.04769C12.1067 12.0561 4.66236 21.7578 1.55226 33.3652C-1.55784 44.9725 0.038253 57.0967 6.04663 67.5036C11.4363 76.8388 20.0024 83.9335 30.1672 87.4805C34.9855 89.1616 40.0155 90.0006 45.0377 90.0006C50.4984 90.0006 55.9492 89.0082 61.1015 87.028C62.0077 86.6798 62.4598 85.6629 62.1114 84.7567C61.763 83.8506 60.7459 83.3979 59.8401 83.7469C46.1256 89.018 31.2788 86.623 20.1865 78.297L21.7613 70.0765L22.5201 69.8301C25.3877 68.8985 26.9627 65.8075 26.0314 62.9398L25.4745 61.2261C25.3457 60.8296 25.3464 60.4103 25.4763 60.0141C25.9648 58.5249 25.7902 56.8956 24.9973 55.5435C24.2043 54.1915 22.8675 53.2435 21.3292 52.9428L17.3618 52.1676L9.70693 46.3475C9.24831 45.9987 8.64802 45.8969 8.09993 46.0748L3.61821 47.5307C3.52312 45.9277 3.52171 44.3253 3.61206 42.7313C3.7889 42.896 3.90403 43.008 3.97487 43.0815C4.06259 43.2275 4.17122 43.3615 4.29849 43.4775C4.66446 43.8108 4.99599 43.9619 5.69208 43.9619C6.33175 43.9618 7.27868 43.8343 8.84226 43.6034C10.3251 43.3842 11.8003 43.1372 11.8149 43.1347C12.406 43.0358 12.9058 42.642 13.141 42.0909C13.3762 41.5397 13.3141 40.9067 12.9765 40.4113L10.8212 37.2501L13.9083 35.0426C14.1139 34.8955 14.2855 34.7058 14.4112 34.4865L19.1965 26.1325L21.1253 24.0656C23.0964 21.9531 23.6589 18.8623 22.5581 16.1911C21.9088 14.6156 20.7746 13.3039 19.3561 12.4199C20.8924 11.2121 22.5305 10.097 24.2715 9.09204C30.659 5.40415 37.6298 3.61698 44.5273 3.54861L41.3885 7.48593L29.7492 11.5663C29.2765 11.7319 28.8968 12.0916 28.7059 12.5546L25.4553 20.4345C25.2245 20.9944 25.2978 21.6332 25.6496 22.126L30.3971 28.7762C29.7172 29.3965 29.0553 30.3001 28.2649 31.4219C27.9182 31.9139 27.5909 32.3785 27.3647 32.639C27.168 32.8658 26.9711 33.0872 26.776 33.3066C25.7549 34.4553 24.6991 35.6435 23.9491 37.2304C22.2999 40.7212 22.633 44.7786 24.8183 47.8193C26.9314 50.7592 30.415 52.2537 34.1331 51.8164C34.7389 51.7454 35.3037 51.6056 35.8502 51.4703C37.3571 51.0974 37.8346 51.0602 38.318 51.5126C38.5532 51.7329 38.5748 51.7745 38.57 52.5214C38.5667 52.9967 38.563 53.5881 38.7268 54.2633C38.9893 55.3434 39.6676 56.09 40.2125 56.6897C40.4834 56.9877 40.7636 57.296 40.8499 57.5029C41.3982 58.8167 41.1595 59.5443 40.6363 61.1386C40.5915 61.275 40.5458 61.4142 40.4999 61.5569C39.7052 64.017 40.813 66.4572 41.7903 68.6098C42.1078 69.3089 42.4075 69.9688 42.6039 70.552C44.1843 75.2417 45.3691 76.3157 46.3199 76.7481C46.8179 76.9745 47.3333 77.0739 47.8539 77.0737C50.3878 77.0735 53.0319 74.7209 54.2466 73.2293C55.0094 72.2928 55.1974 71.355 55.3345 70.67C55.4028 70.3293 55.4566 70.0604 55.5593 69.8846C55.7164 69.6156 55.9015 69.4072 56.1359 69.1431C56.6071 68.6125 57.1937 67.9522 57.5736 66.7553C57.8622 65.8462 58.0719 65.6233 58.7664 64.8836C58.8874 64.7551 59.0162 64.6177 59.1545 64.4672C61.4958 61.9196 60.8928 59.9735 60.2542 57.913C59.7169 56.1793 60.6568 55.0704 62.9293 52.9542C63.9143 52.0368 64.9328 51.0883 65.7202 49.9485C66.0647 49.4497 67.1129 47.9321 66.4642 46.428C65.8284 44.9532 64.2125 44.7053 62.9142 44.5063C62.4014 44.4276 61.6266 44.3088 61.3799 44.1476C60.2924 43.4365 59.627 41.9526 58.9835 40.5173C58.8554 40.2317 58.729 39.9497 58.6008 39.676C58.3723 39.1877 58.144 38.5969 57.9023 37.9715C57.2628 36.3163 56.538 34.4402 55.3042 33.1324C54.1952 31.9573 52.1047 31.3913 50.2602 30.8917C49.6399 30.7239 49.0543 30.5653 48.6681 30.4227C48.3445 30.3032 47.9933 30.2816 47.6583 30.3603C46.7606 30.5708 46.2005 30.8026 45.7846 31.1359C45.6748 31.224 45.3494 31.5131 45.1588 31.9779C44.5153 31.669 43.6304 31.0793 43.0858 30.7163C43.0746 30.7087 43.0632 30.7012 43.0519 30.6936C43.2354 29.9592 43.0693 29.3698 42.8953 29.0017C41.9134 26.9247 38.6539 27.0873 38.0109 27.142C37.6456 27.1726 37.1835 27.1889 36.6946 27.2061C35.9268 27.2334 35.0781 27.264 34.2384 27.3582L34.2817 27.2376C34.9191 25.4617 36.615 24.2685 38.5018 24.2685H39.5011C40.4716 24.2685 41.2588 23.4813 41.2588 22.5108C41.2588 21.5403 40.4716 20.7532 39.5011 20.7532H38.5018C35.7006 20.7532 33.1354 22.2275 31.6977 24.548L29.0759 20.8754L31.6553 14.623L43.0289 10.6356C43.3407 10.5262 43.6157 10.3311 43.8218 10.0726L48.8778 3.73054C61.7967 4.95943 73.9573 12.2027 80.9256 24.2722C82.7817 27.487 84.1547 30.8715 85.0675 34.3332L84.3224 34.9976C83.3498 35.8655 82.7799 37.1102 82.7581 38.4129C82.7579 38.4271 82.7576 38.4412 82.757 38.4552L81.5431 35.1168C81.3622 34.6186 81.0957 34.1618 80.7516 33.7591L78.5861 31.2238C77.7466 30.241 76.5242 29.6776 75.232 29.6776H72.5814C71.6405 29.6776 70.7805 30.193 70.3367 31.0222C69.8928 31.8515 69.9414 32.8531 70.4633 33.6357L70.7315 34.0384C69.0187 35.5113 67.0376 36.6899 64.9283 37.4848L61.2949 30.5251V28.9724C61.2949 28.4921 61.0983 28.0325 60.7508 27.7011L57.479 24.5777C57.2985 24.4054 57.0833 24.2736 56.8479 24.1908L53.9027 23.1558C52.9864 22.8334 51.9834 23.3156 51.6617 24.2312C51.3398 25.1472 51.8213 26.1504 52.7371 26.4722L55.3253 27.3819L57.7796 29.7245V30.9564C57.7796 31.2396 57.8481 31.5187 57.9793 31.7699L62.528 40.4829C62.937 41.2669 63.8655 41.6251 64.6941 41.3186L66.0186 40.8302C69.0957 39.6954 71.9477 37.8699 74.2666 35.5513C74.859 34.9588 74.9511 34.0308 74.4862 33.3335L74.3927 33.1931H75.232C75.4945 33.1931 75.7428 33.3075 75.9134 33.5072L78.0788 36.0425C78.1486 36.1242 78.2026 36.2167 78.2395 36.3181L80.6292 42.8893C80.8345 43.4539 81.3141 43.8744 81.9001 44.0045C82.0267 44.0324 82.1541 44.0462 82.2809 44.0462C82.7419 44.0462 83.1907 43.8646 83.5236 43.5313L84.6611 42.3938C85.3815 41.6733 85.8773 40.7617 86.1143 39.7511C87.8735 53.8496 82.3454 68.4339 70.6605 77.6051C69.8967 78.2043 69.7635 79.3091 70.3631 80.0729C70.9623 80.8366 72.0669 80.9699 72.8309 80.3703C81.2669 73.7491 87.0625 64.2789 89.1499 53.7041C91.2568 43.0273 89.4172 31.9505 83.9696 22.5149ZM8.31122 49.7024L15.5592 55.2134C15.7735 55.3763 16.022 55.4877 16.2861 55.5393L20.6546 56.3928C21.2122 56.5018 21.6773 56.8316 21.9647 57.3217C22.2521 57.8116 22.3125 58.3785 22.1357 58.9183C21.7718 60.028 21.7701 61.2017 22.131 62.3121L22.6878 64.0256C23.0206 65.0497 22.4577 66.1538 21.4338 66.4866L19.6871 67.0542C19.0776 67.2521 18.6245 67.7661 18.5041 68.395L17.0982 75.7337C14.0074 72.9049 11.2937 69.5615 9.09099 65.7462C6.40364 61.092 4.72458 56.1278 3.98454 51.1082L8.31122 49.7024ZM18.5552 21.6673L16.4875 23.8826C16.3952 23.9816 16.3145 24.0909 16.2472 24.2084L11.5518 32.4061L7.37853 35.3902C6.60122 35.946 6.41032 37.0205 6.94857 37.8101L8.50933 40.0995C7.60968 40.2335 6.80232 40.3438 6.26548 40.4024C6.1623 40.3034 6.05437 40.203 5.94275 40.0993C5.52491 39.7112 4.94431 39.1928 4.07876 38.4354C5.50628 29.6001 9.7637 21.2765 16.4596 14.9229C17.7417 15.3267 18.7939 16.2831 19.3079 17.5306C19.8862 18.9337 19.5906 20.5576 18.5552 21.6673ZM32.8867 31.2725C33.6707 30.8313 35.4903 30.7668 36.8189 30.7196C37.3513 30.7008 37.8544 30.6829 38.3037 30.6453C38.5409 30.6254 38.8042 30.6291 39.0526 30.6485C38.9416 30.9332 38.9056 31.2458 38.9538 31.5558C39.0383 32.1013 39.3746 32.575 39.8611 32.8354C40.1909 33.0118 40.6499 33.3179 41.1357 33.6418C42.5095 34.5577 44.0667 35.5956 45.5296 35.6888C46.8599 35.7751 47.6001 35.017 47.9172 34.6941C47.9425 34.6684 47.9664 34.6427 47.9917 34.6194C48.1703 34.4738 48.3377 34.2787 48.4621 34.0433C48.7432 34.1236 49.0385 34.2036 49.3412 34.2857C50.382 34.5675 52.3193 35.092 52.7473 35.5455C53.5076 36.3515 54.1001 37.8855 54.6231 39.2389C54.8873 39.9228 55.1369 40.5683 55.4169 41.1669C55.5371 41.4237 55.6554 41.6882 55.7757 41.9561C56.5867 43.7653 57.5061 45.8159 59.4564 47.0907C60.3407 47.6688 61.4248 47.8349 62.3814 47.9817C62.497 47.9995 62.6296 48.0199 62.7642 48.042C62.1964 48.8341 61.388 49.5868 60.5339 50.3822C58.3579 52.4086 55.6498 54.9307 56.897 58.9542C57.4857 60.854 57.5131 61.0593 56.5665 62.089C56.4375 62.2295 56.3173 62.3575 56.2046 62.4773C55.3939 63.3404 54.7535 64.0221 54.2234 65.692C54.0694 66.177 53.8699 66.4017 53.5076 66.8095C53.2179 67.1357 52.857 67.5421 52.5243 68.1117C52.1256 68.794 51.9937 69.4511 51.8881 69.979C51.7839 70.4984 51.7248 70.7591 51.5209 71.0094C51.0567 71.5793 50.1908 72.4069 49.3018 72.9717C48.4757 73.4962 47.9933 73.5679 47.829 73.5581C47.6414 73.357 46.962 72.4765 45.9354 69.4297C45.6823 68.678 45.3311 67.9046 44.9915 67.1566C44.2428 65.5078 43.4689 63.8027 43.8454 62.6375C43.8899 62.5 43.9338 62.3657 43.9771 62.2344C44.5786 60.401 45.1464 58.6697 44.0945 56.149C43.7742 55.3814 43.2643 54.8205 42.8148 54.3255C42.5239 54.0054 42.1943 53.6426 42.1435 53.4337C42.0816 53.179 42.0835 52.885 42.0858 52.5445C42.0918 51.626 42.1009 50.2382 40.7212 48.9462C38.776 47.1255 36.5078 47.6864 35.0066 48.0577C34.5455 48.1716 34.1099 48.2795 33.7239 48.3248C31.2545 48.6142 29.0499 47.6825 27.6735 45.7672C26.2337 43.7638 26.0247 41.0679 27.1283 38.7318C27.6625 37.6013 28.4695 36.693 29.4039 35.6419C29.608 35.4121 29.814 35.1804 30.02 34.9431C30.3628 34.548 30.74 34.0129 31.1389 33.4464C31.6151 32.7705 32.5017 31.5119 32.8867 31.2725Z" fill="#083A5E"/>
<path d="M72.0742 60.5175L71.2285 57.3299C71.0438 56.6338 70.4531 56.1209 69.7382 56.0355C69.0224 55.9518 68.3283 56.3097 67.9846 56.9427C67.792 57.2978 67.6185 57.6739 67.4508 58.0376C67.1687 58.6495 66.8769 59.2823 66.5733 59.6316C66.4028 59.8278 65.9647 60.0392 65.5415 60.2435C64.5295 60.7318 63.1435 61.4007 62.614 63.0885C62.2853 64.1355 62.408 64.9637 62.4976 65.5684C62.5751 66.0928 62.5931 66.2745 62.4526 66.6043L62.4351 66.6453C61.8755 67.9582 60.8346 70.4024 62.2943 72.4803C63.3358 73.9632 64.4309 74.3445 65.2818 74.3445C65.4479 74.345 65.6051 74.3304 65.7505 74.3067C67.5434 74.0137 68.8913 72.1486 69.9928 68.4368L72.0603 61.4687C72.1522 61.1588 72.1572 60.8297 72.0742 60.5175ZM66.6229 67.4368C66.0614 69.3293 65.5647 70.2127 65.278 70.6044C65.2449 70.5622 65.2091 70.5144 65.1707 70.4597C64.8348 69.9812 65.3368 68.8028 65.6691 68.0229L65.6868 67.9817C66.2226 66.7242 66.0793 65.7585 65.9751 65.0532C65.9081 64.6016 65.8842 64.4076 65.9681 64.1409C66.037 63.9217 66.4488 63.709 67.0693 63.4095C67.3444 63.2766 67.6473 63.1305 67.953 62.9537L66.6229 67.4368Z" fill="#083A5E"/>
<path d="M47.4654 20.8936L47.3467 20.8521C46.4314 20.5315 45.4277 21.0129 45.1064 21.9289C44.7851 22.8451 45.2672 23.8479 46.1832 24.1693L46.3017 24.2108C46.4942 24.2783 46.6904 24.3102 46.8835 24.3102C47.6092 24.3102 48.2884 23.8573 48.5422 23.1339C48.8635 22.2177 48.3814 21.2147 47.4654 20.8936Z" fill="#083A5E"/>
</g>
<defs>
<clipPath id="clip0">
<rect width="90" height="90" fill="white"/>
</clipPath>
</defs>
</svg>
