<svg width="92" height="91" viewBox="0 0 92 91" fill="none" xmlns="http://www.w3.org/2000/svg">
<path fill-rule="evenodd" clip-rule="evenodd" d="M28.7945 59.5C30.6864 58.6304 32 56.7186 32 54.5C32 51.4624 29.5376 49 26.5 49C23.4624 49 21 51.4624 21 54.5C21 56.7186 22.3136 58.6304 24.2055 59.5H22C18.773 60.2593 16.4693 62.9253 14.8859 66.0339C12.1374 66.3392 10 68.67 10 71.5C10 73.2198 10.7894 74.7553 12.0256 75.7638C12.0164 75.8439 12.0078 75.9226 11.9998 76C5.19983 77.6 3.83317 86.3333 3.99983 90.5L91 89.5C92.1262 80.8656 87.4683 76.5472 84.5491 75.2222C85.45 74.2428 86 72.9356 86 71.5C86 68.4624 83.5376 66 80.5 66C78.9551 61.3653 75.4212 58.8438 73.6793 58.0755C74.5027 57.114 75 55.8651 75 54.5C75 51.4624 72.5376 49 69.5 49C66.4624 49 64 51.4624 64 54.5C64 55.9077 64.5289 57.1919 65.3987 58.1647C62.3162 59.0826 59.8958 63.6112 59 66C57 60.8 52.8333 59.1667 51 59H50.6631C52.0765 58.0046 53 56.3602 53 54.5C53 51.4624 50.5376 49 47.5 49C44.4624 49 42 51.4624 42 54.5C42 56.3691 42.9324 58.0205 44.3574 59.0143C40.0546 59.4889 37.9946 63.5217 37.5 65.5C35.1 61.1 31.5 59.6667 30 59.5H28.7945Z" fill="#EBB11A"/>
<path d="M47.5001 3.49992C10.7001 4.29992 3.83344 26.8333 5.0001 37.9999H91C91.8334 26.1666 84.3001 2.69992 47.5001 3.49992Z" fill="#EBB11A"/>
<path d="M73.7579 21.7127C73.5136 21.0006 72.8456 20.5225 72.095 20.5225C71.9017 20.5225 71.71 20.5541 71.5255 20.6174C71.0808 20.7703 70.7222 21.085 70.5165 21.5068C70.3091 21.9287 70.2792 22.4051 70.4304 22.85C70.6747 23.5619 71.3427 24.04 72.095 24.04C72.2866 24.04 72.4782 24.0084 72.6628 23.9451C73.5803 23.6304 74.0708 22.6285 73.7579 21.7127Z" fill="#083A5E"/>
<path d="M88.2422 40.957C89.213 40.957 90 40.1699 90 39.1992V35.6836C90 29.632 88.7924 24.1905 86.4107 19.5101C84.1595 15.0862 80.8545 11.3237 76.5872 8.32641C68.8315 2.8793 57.9088 0 45 0C32.0912 0 21.1685 2.8793 13.4128 8.32641C9.14572 11.3237 5.84051 15.0862 3.58928 19.5101C1.20762 24.1905 0 29.632 0 35.6836V39.1992C0 40.1699 0.786973 40.957 1.75781 40.957C2.72865 40.957 3.51562 40.1699 3.51562 39.1992V37.4414H14.0625V39.1992C14.0625 40.1699 14.8495 40.957 15.8203 40.957C16.7912 40.957 17.5781 40.1699 17.5781 39.1992V37.4414H28.8281V39.1992C28.8281 40.1699 29.6151 40.957 30.5859 40.957C31.5568 40.957 32.3438 40.1699 32.3438 39.1992V37.4414H43.2422V44.8792C40.0395 45.7302 37.6567 48.8496 37.6567 52.5588C37.6567 53.9125 37.9746 55.1874 38.5332 56.3026C36.7866 56.8835 35.2719 58.0651 34.1895 59.6354C33.107 58.0649 31.5921 56.8839 29.8454 56.3031C30.4042 55.1878 30.7222 53.9125 30.7222 52.5586C30.7222 48.1969 27.428 44.6484 23.3789 44.6484C19.3298 44.6484 16.0356 48.1969 16.0356 52.5586C16.0356 53.9105 16.3528 55.1841 16.91 56.2983C14.375 57.1428 12.3319 59.2601 11.3852 61.9791C7.89697 62.5904 5.2251 65.8573 5.2251 69.7852C5.2251 71.1371 5.54221 72.4108 6.09961 73.5249C2.57572 74.6984 0 78.3294 0 82.6172V88.2422C0 89.2129 0.786973 90 1.75781 90H88.2422C89.213 90 90 89.2129 90 88.2422V82.6172C90 78.3292 87.4239 74.6993 83.8997 73.5267C84.4576 72.412 84.7749 71.138 84.7749 69.7852C84.7749 65.858 82.1041 62.5917 78.6164 61.9794C77.6695 59.2599 75.6251 57.1433 73.0895 56.299C73.6471 55.1846 73.9644 53.9109 73.9644 52.5586C73.9644 48.1969 70.6702 44.6484 66.6211 44.6484C62.572 44.6484 59.2778 48.1969 59.2778 52.5586C59.2778 53.9121 59.5956 55.1872 60.1541 56.3024C58.4075 56.8832 56.893 58.0649 55.8105 59.6354C54.7283 58.0651 53.2151 56.8798 51.4691 56.298C52.0263 55.1839 52.3433 53.9105 52.3433 52.5588C52.3433 48.8496 49.9605 45.7302 46.7578 44.8792V37.4414H57.6562V39.1992C57.6562 40.1699 58.4432 40.957 59.4141 40.957C60.3849 40.957 61.1719 40.1699 61.1719 39.1992V37.4414H72.4219V39.1992C72.4219 40.1699 73.2088 40.957 74.1797 40.957C75.1505 40.957 75.9375 40.1699 75.9375 39.1992V37.4414H86.4844V39.1992C86.4844 40.1699 87.2713 40.957 88.2422 40.957ZM17.0262 19.6383C15.2525 23.9361 14.2706 28.7358 14.0941 33.9258H3.55271C3.97301 24.088 7.96465 16.4493 15.4334 11.2034C18.9912 8.70451 23.306 6.79148 28.2405 5.49861C26.9506 6.40248 25.7235 7.40549 24.5811 8.49357C21.3504 11.5717 18.8068 15.3211 17.0262 19.6383ZM28.857 33.9258H17.6136C17.9771 24.4811 21.2075 16.5932 27.0104 11.0354C30.6373 7.56422 35.2403 5.12631 39.9449 4.08357C38.825 5.32898 37.5731 6.89414 36.3227 8.80102C33.0632 13.773 29.2096 22.0943 28.857 33.9258ZM34.1895 65.3906C36.3001 65.3906 38.0171 67.362 38.0171 69.7852C38.0171 72.2083 36.3001 74.1797 34.1895 74.1797C32.0788 74.1797 30.3618 72.2083 30.3618 69.7852C30.3618 67.362 32.0788 65.3906 34.1895 65.3906ZM23.3789 48.1641C25.4895 48.1641 27.2065 50.1354 27.2065 52.5586C27.2065 54.9817 25.4895 56.9531 23.3789 56.9531C21.2683 56.9531 19.5513 54.9817 19.5513 52.5586C19.5513 50.1354 21.2683 48.1641 23.3789 48.1641ZM12.5684 65.3906C14.679 65.3906 16.396 67.362 16.396 69.7852C16.396 72.2083 14.679 74.1797 12.5684 74.1797C10.4578 74.1797 8.74072 72.2083 8.74072 69.7852C8.74072 67.362 10.4578 65.3906 12.5684 65.3906ZM21.6211 86.4844H3.51562V82.6172C3.51562 79.3216 5.77529 76.6406 8.55299 76.6406H8.91211C9.98965 77.3102 11.2377 77.6953 12.5684 77.6953C13.899 77.6953 15.1471 77.3102 16.2246 76.6406H16.5836C19.3614 76.6406 21.6211 79.3216 21.6211 82.6172V86.4844ZM23.3789 76.8619C22.2964 75.2915 20.7823 74.1092 19.0357 73.5281C19.594 72.4131 19.9116 71.1385 19.9116 69.7852C19.9116 66.3562 17.8752 63.431 15.037 62.3363C15.9168 60.5881 17.5263 59.4141 19.3635 59.4141H19.7225C20.8 60.0836 22.0481 60.4688 23.3787 60.4688C24.7094 60.4688 25.9574 60.0836 27.035 59.4141H27.3939C29.2314 59.4141 30.841 60.5879 31.7206 62.3361C28.8824 63.4308 26.8458 66.356 26.8458 69.7852C26.8458 71.1392 27.1637 72.4145 27.7226 73.53C25.9762 74.1106 24.4614 75.2915 23.3789 76.8619ZM43.2422 86.4844H25.1367V82.6172C25.1367 79.3216 27.3964 76.6406 30.1741 76.6406H30.533C31.6106 77.3102 32.8586 77.6953 34.1893 77.6953C35.5199 77.6953 36.768 77.3102 37.8455 76.6406H38.2045C40.9825 76.6406 43.2422 79.3216 43.2422 82.6172V86.4844ZM64.8633 86.4844H46.7578V82.6172C46.7578 79.3216 49.0175 76.6406 51.7952 76.6406H52.1541C53.2317 77.3102 54.4797 77.6953 55.8104 77.6953C57.141 77.6953 58.3891 77.3102 59.4666 76.6406H59.8256C62.6036 76.6406 64.8633 79.3216 64.8633 82.6172V86.4844ZM86.4844 82.6172V86.4844H68.3789V82.6172C68.3789 79.3216 70.6386 76.6406 73.4163 76.6406H73.7752C74.8528 77.3102 76.1008 77.6953 77.4315 77.6953C78.7621 77.6953 80.0102 77.3102 81.0877 76.6406H81.4467C84.2247 76.6406 86.4844 79.3216 86.4844 82.6172ZM77.4316 65.3906C79.5422 65.3906 81.2593 67.362 81.2593 69.7852C81.2593 72.2083 79.5422 74.1797 77.4316 74.1797C75.321 74.1797 73.604 72.2083 73.604 69.7852C73.604 67.362 75.321 65.3906 77.4316 65.3906ZM66.6211 48.1641C68.7317 48.1641 70.4487 50.1354 70.4487 52.5586C70.4487 54.9817 68.7317 56.9531 66.6211 56.9531C64.5105 56.9531 62.7935 54.9817 62.7935 52.5586C62.7935 50.1354 64.5105 48.1641 66.6211 48.1641ZM62.6057 59.4141H62.9647C64.0422 60.0836 65.2903 60.4688 66.6209 60.4688C67.9516 60.4688 69.1996 60.0836 70.2772 59.4141H70.6361C72.4736 59.4141 74.0832 60.5879 74.9631 62.3361C72.1248 63.4307 70.088 66.356 70.088 69.7852C70.088 71.1378 70.4053 72.4119 70.9632 73.5265C69.217 74.1083 67.7032 75.2917 66.6207 76.8619C65.5383 75.2917 64.0246 74.108 62.2781 73.527C62.836 72.4122 63.1535 71.138 63.1535 69.7852C63.1535 66.3562 61.1172 63.4312 58.2792 62.3363C59.1592 60.5881 60.7685 59.4141 62.6057 59.4141ZM55.8105 65.3906C57.9212 65.3906 59.6382 67.362 59.6382 69.7852C59.6382 72.2083 57.9212 74.1797 55.8105 74.1797C53.6999 74.1797 51.9829 72.2083 51.9829 69.7852C51.9829 67.362 53.6999 65.3906 55.8105 65.3906ZM53.3422 62.3361C50.5039 63.4307 48.4673 66.356 48.4673 69.7852C48.4673 71.1381 48.7847 72.4124 49.3428 73.5274C47.5965 74.109 46.0825 75.2917 45 76.8619C43.9177 75.2917 42.4046 74.1064 40.6586 73.5246C41.2158 72.4105 41.5327 71.1371 41.5327 69.7853C41.5327 66.3558 39.4958 63.4305 36.6571 62.3361C37.5369 60.5878 39.1472 59.4142 40.9846 59.4142H41.3436C42.4211 60.0838 43.6692 60.4689 44.9998 60.4689C46.3305 60.4689 47.5785 60.0838 48.6561 59.4142H49.015C50.8526 59.4141 52.4624 60.5879 53.3422 62.3361ZM48.8276 52.5586C48.8276 54.9817 47.1106 56.9531 45 56.9531C42.8894 56.9531 41.1724 54.9817 41.1724 52.5586C41.1724 50.1354 42.8894 48.1641 45 48.1641C47.1106 48.1641 48.8276 50.1354 48.8276 52.5586ZM32.374 33.9258C32.719 23.0548 36.2102 15.4322 39.1653 10.8787C41.436 7.3793 43.7303 5.12508 45 4.01625C46.2709 5.12596 48.5645 7.38 50.8349 10.8787C53.7898 15.4324 57.2811 23.0548 57.6262 33.9258H32.374ZM75.9073 33.9258C75.8472 32.1878 75.6977 30.4882 75.4594 28.8527C75.3996 28.4326 75.1887 28.0477 74.8652 27.7719C74.482 27.4431 73.9688 27.2936 73.4678 27.3656C73.0037 27.4324 72.5924 27.6769 72.3111 28.0529C72.0316 28.4291 71.9139 28.8932 71.9807 29.3572C72.1948 30.8289 72.3303 32.3597 72.3885 33.9258H61.143C60.7906 22.0943 56.9368 13.773 53.6771 8.80102C52.4299 6.89889 51.1813 5.33689 50.0636 4.09289C52.4473 4.62305 54.8265 5.50705 57.0445 6.70939C61.3828 9.05766 65.0443 12.5576 67.6354 16.8326C67.957 17.3617 68.5195 17.6799 69.14 17.6799C69.46 17.6799 69.7746 17.5901 70.0488 17.425C70.4514 17.1807 70.7344 16.7957 70.8451 16.3404C70.9576 15.8832 70.8855 15.4123 70.6412 15.0098C69.1312 12.5172 67.3014 10.2549 65.2025 8.28984C64.121 7.27629 62.967 6.34518 61.7551 5.49738C66.6916 6.79043 71.0077 8.70381 74.5666 11.2034C82.0355 16.4493 86.027 24.088 86.4473 33.9258H75.9073Z" fill="#083A5E"/>
</svg>
