<svg width="92" height="90" viewBox="0 0 92 90" fill="none" xmlns="http://www.w3.org/2000/svg">
<path fill-rule="evenodd" clip-rule="evenodd" d="M14 55.4324V44.0001C12.1667 42.8334 8.2 39.5001 7 35.5001C5.8 31.5001 4.83333 26.5001 4.5 24.5001C5.33333 21.8334 7.7 17.8001 10.5 23.0001L12 25.5002V10.0002C12.8333 8.00015 15.3 4.60015 18.5 7.00015C19.8333 4.50016 23.2 1.00018 26 7.00015C27.8333 6.16687 31.7 5.60028 32.5 10.0002C34.3333 9.66677 38.1 9.8 38.5 13C38.9 16.2 38.6667 27.3333 38.5 32.5C38.1667 35.3334 36.5 41.6001 32.5 44.0001V55.4901C32.6065 55.4934 32.7108 55.4967 32.8127 55.5C35.6461 55.8333 41.9129 57.5 44.3128 61.5L56.8128 61.5L56.8128 80H44.3128C43.1461 81.8333 39.8128 85.8 35.8128 87C31.8128 88.2 26.8128 89.1667 24.8128 89.5C22.1461 88.6667 18.1128 86.3 23.3128 83.5L25.8129 82H10.3129C8.3129 81.1667 4.9129 78.7 7.3129 75.5C4.81291 74.1667 1.31292 70.8 7.3129 68C6.47962 66.1667 5.91302 62.3 10.3129 61.5C9.97952 59.6667 10.1127 55.9 13.3127 55.5C13.5121 55.4751 13.7424 55.4526 14 55.4324ZM38.9997 13.5H51.4997C52.6664 11.6667 55.9997 7.7 59.9997 6.5C63.9997 5.3 68.9997 4.33333 70.9997 4C73.6664 4.83333 77.6997 7.2 72.4997 10L69.9996 11.5L85.4996 11.5C87.4996 12.3333 90.8996 14.8 88.4996 18C90.9996 19.3333 94.4996 22.7 88.4996 25.5C89.3329 27.3333 89.8995 31.2 85.4996 32C85.833 33.8333 85.6998 37.6 82.4998 38C82.3004 38.0249 82.0702 38.0474 81.8125 38.0676L81.8125 49.4999C83.6458 50.6666 87.6125 53.9999 88.8125 57.9999C90.0125 61.9999 90.9792 66.9999 91.3125 68.9999C90.4792 71.6666 88.1125 75.6999 85.3125 70.4999L83.8125 67.9998V83.4998C82.9792 85.4998 80.5125 88.8998 77.3125 86.4998C75.9792 88.9998 72.6125 92.4998 69.8125 86.4998C67.9792 87.3331 64.1125 87.8997 63.3125 83.4998C61.4792 83.8332 57.7125 83.7 57.3125 80.5C56.9125 77.3 57.1458 66.1667 57.3125 61C57.6458 58.1666 59.3125 51.8999 63.3125 49.4999V38.0099L62.9998 38C60.1664 37.6667 53.8996 36 51.4997 32H38.9997V13.5Z" fill="#EBB11A"/>
<g clip-path="url(#clip0)">
<path d="M89.9036 67.2719L88.231 58.7899C87.559 55.3815 85.9033 52.2831 83.4432 49.8297L80.5063 46.9012V36.9199C82.3418 36.1945 83.6443 34.4038 83.6443 32.3134C83.6443 31.7492 83.5482 31.2071 83.3735 30.7013C85.4531 30.1142 86.9821 28.2008 86.9821 25.9359C86.9821 25.3377 86.8754 24.764 86.6801 24.2326C88.6103 23.556 89.9988 21.7168 89.9988 19.5586C89.9988 17.4001 88.6103 15.5611 86.6801 14.8845C86.8754 14.3531 86.9821 13.7794 86.9821 13.1812C86.9821 10.4505 84.7604 8.2291 82.03 8.2291H72.1052C73.0163 7.12854 73.4545 5.65198 73.1899 4.15203C72.9537 2.81188 72.2054 1.65032 71.0828 0.881097C69.9605 0.111879 68.6068 -0.166735 67.2722 0.0965855L58.7901 1.76914C55.3815 2.44133 52.2832 4.09702 49.83 6.55707L46.9015 9.49403H36.9203C36.1948 7.65852 34.4041 6.35598 32.3139 6.35598C31.7497 6.35598 31.2076 6.45213 30.7018 6.62686C30.1147 4.54719 28.2014 3.01825 25.9366 3.01825C25.3384 3.01825 24.7647 3.12494 24.2333 3.32024C23.5567 1.38998 21.7175 0.00148788 19.5592 0.00148788C17.4008 0.00148788 15.5618 1.39016 14.8852 3.32041C14.3538 3.12512 13.7801 3.01842 13.1819 3.01842C10.4513 3.01842 8.22979 5.23995 8.22979 7.97053V17.8953C7.1294 16.9844 5.65319 16.5464 4.15272 16.8107C2.81256 17.047 1.651 17.7953 0.881783 18.9178C0.112564 20.0402 -0.166049 21.3937 0.0970955 22.7286L1.77001 31.2106C2.44219 34.6191 4.09788 37.7175 6.55776 40.1707L9.49454 43.0992V53.0802C7.65885 53.8057 6.35614 55.5965 6.35614 57.6867C6.35614 58.2512 6.45229 58.7931 6.62702 59.299C4.54735 59.8861 3.0184 61.7993 3.0184 64.0643C3.0184 64.6626 3.1251 65.2364 3.3204 65.7678C1.38997 66.4443 0.00164631 68.2835 0.00164631 70.4418C0.00164631 72.6002 1.39014 74.4392 3.3204 75.1156C3.1251 75.647 3.0184 76.2209 3.0184 76.8191C3.0184 79.5497 5.2401 81.7712 7.97051 81.7712H17.8953C16.9844 82.8718 16.5462 84.3482 16.8107 85.8481C17.047 87.1883 17.7953 88.3498 18.9176 89.1189C19.7642 89.6991 20.7423 90.0003 21.7447 90.0003C22.0712 90.0003 22.4004 89.9681 22.7286 89.9036L31.2107 88.2308C34.6189 87.5588 37.7174 85.9031 40.1708 83.4431L43.0993 80.5061H53.0806C53.806 82.3418 55.5967 83.6445 57.6871 83.6445C58.2513 83.6445 58.7934 83.5484 59.2992 83.3736C59.8864 85.4533 61.7998 86.9821 64.0644 86.9821C64.6626 86.9821 65.2365 86.8754 65.7679 86.6801C66.4443 88.6105 68.2835 89.9988 70.4418 89.9988C72.6002 89.9988 74.4394 88.6104 75.1158 86.6801C75.6472 86.8754 76.2211 86.9821 76.8193 86.9821C79.5499 86.9821 81.7712 84.7604 81.7712 82.03V72.1055C82.8718 73.0163 84.3476 73.4547 85.8483 73.1899C87.1884 72.9537 88.35 72.2054 89.119 71.083C89.8881 69.9607 90.1669 68.607 89.9036 67.2719ZM37.2666 23.1723V18.3808V13.0095H47.6313C48.0984 13.0095 48.5463 12.8235 48.876 12.4929L52.3196 9.03963C54.2776 7.07633 56.75 5.75481 59.4704 5.2185L67.9525 3.54594C68.3533 3.46719 68.7592 3.55051 69.096 3.78131C69.4328 4.01211 69.6572 4.36069 69.7281 4.7627C69.8655 5.54194 69.3713 6.29973 68.6031 6.48817L65.0781 7.35248C63.9663 7.62495 63.2588 8.64764 63.3961 9.78407C63.5334 10.9205 64.4638 11.7454 65.6087 11.7454H82.0305C82.8227 11.7454 83.4672 12.39 83.4672 13.1821C83.4672 13.9162 82.9136 14.5222 82.202 14.6073L72.4733 14.6186C71.5026 14.6186 70.7155 15.4056 70.7155 16.3764C70.7155 17.3472 71.5026 18.1342 72.4733 18.1342L85.0474 18.123C85.8397 18.123 86.4841 18.7675 86.4841 19.5596C86.4841 20.3517 85.8397 20.9963 85.0474 20.9963H72.4733C71.5026 20.9963 70.7155 21.7832 70.7155 22.7541C70.7155 23.7249 71.5026 24.5119 72.4733 24.5119H82.2028C82.914 24.5973 83.4672 25.2034 83.4672 25.9371C83.4672 26.7292 82.8227 27.3738 82.0305 27.3738H72.4733C71.5026 27.3738 70.7155 28.1608 70.7155 29.1316C70.7155 30.1024 71.5026 30.8894 72.4733 30.8894H78.8645C79.5757 30.9747 80.1294 31.5808 80.1294 32.3148C80.1294 33.1069 79.485 33.7513 78.6929 33.7513H60.9411C57.2223 33.7513 53.728 32.3011 51.1021 29.6677L48.8764 27.4357C48.5466 27.105 48.0987 26.919 47.6317 26.919H37.2666V23.1723ZM9.03997 37.6807C7.07649 35.7229 5.75514 33.2503 5.21901 30.5299L3.54628 22.048C3.46717 21.6474 3.55085 21.2413 3.78165 20.9045C4.01245 20.5677 4.36102 20.3432 4.76303 20.2724C5.54315 20.1353 6.29989 20.6292 6.48833 21.3976L7.35247 24.9222C7.62475 26.0342 8.64815 26.7405 9.78387 26.6044C10.9205 26.4673 11.7454 25.5367 11.7454 24.392V7.97018C11.7454 7.17811 12.3898 6.53352 13.1821 6.53352C13.916 6.53352 14.5219 7.08688 14.6073 7.79809L14.6186 17.5274C14.6186 18.4982 15.4057 19.2852 16.3764 19.2852C17.347 19.2852 18.1342 18.4982 18.1342 17.5274V7.97018C18.1342 7.86313 18.1296 7.75731 18.1229 7.65184V4.95325C18.1229 4.16118 18.7673 3.51676 19.5596 3.51676C20.3518 3.51676 20.9963 4.16118 20.9963 4.95325V7.65202C20.9896 7.75731 20.985 7.8633 20.985 7.97036L20.9963 17.5276C20.9963 18.4984 21.7834 19.2854 22.7541 19.2854C23.7247 19.2854 24.5119 18.4984 24.5119 17.5276V7.79809C24.5973 7.08688 25.2034 6.53352 25.9371 6.53352C26.7294 6.53352 27.3738 7.17811 27.3738 7.97018C27.3738 7.97018 27.3667 16.5216 27.3738 16.5856V17.5276C27.3738 18.4984 28.1609 19.2854 29.1316 19.2854C30.1023 19.2854 30.8894 18.4984 30.8894 17.5276V11.1358C30.9748 10.4246 31.5809 9.87125 32.3146 9.87125C33.1069 9.87125 33.7513 10.5158 33.7513 11.3079V29.0595C33.7513 32.7244 32.2628 36.3107 29.6679 38.8985L27.4358 41.1243C27.105 41.454 26.9192 41.9019 26.9192 42.369V52.7339H23.4038V48.0668C23.4038 47.0961 22.6166 46.3089 21.6459 46.3089C20.6753 46.3089 19.8881 47.0961 19.8881 48.0668V52.7339H13.01V42.369C13.01 41.9019 12.824 41.454 12.4934 41.1243L9.03997 37.6807ZM52.7348 76.9902H42.3695V76.9903C41.9024 76.9903 41.4546 77.1763 41.1248 77.5068L37.6812 80.96C35.7232 82.9237 33.2507 84.245 30.5305 84.781L22.0483 86.4537C21.6475 86.533 21.2416 86.4493 20.9048 86.2183C20.5681 85.9873 20.3436 85.6389 20.2727 85.2369C20.1353 84.4579 20.6296 83.7001 21.3977 83.5118L24.923 82.6475C26.0347 82.3749 26.742 81.3523 26.6046 80.2159C26.4674 79.0795 25.5369 78.2547 24.3922 78.2547H7.97069C7.17844 78.2547 6.53403 77.6103 6.53403 76.8181C6.53403 76.0838 7.08792 75.4776 7.79965 75.3927L17.5281 75.3816C18.4988 75.3816 19.2859 74.5944 19.2859 73.6238C19.2859 72.6531 18.4988 71.866 17.5281 71.866L4.95393 71.877C4.16169 71.877 3.51727 71.2326 3.51727 70.4404C3.51727 69.6483 4.16169 69.0039 4.95393 69.0039H17.5281C18.4988 69.0039 19.2859 68.2167 19.2859 67.2461C19.2859 66.2754 18.4988 65.4883 17.5281 65.4883H7.79965C7.08792 65.4034 6.53403 64.7971 6.53403 64.0629C6.53403 63.2708 7.17844 62.6264 7.97069 62.6264H17.5281C18.4988 62.6264 19.2859 61.8392 19.2859 60.8686C19.2859 59.8979 18.4988 59.1107 17.5281 59.1107H11.1374C10.4258 59.0258 9.87194 58.4196 9.87194 57.6853C9.87194 56.8931 10.5164 56.2487 11.3084 56.2487H29.06C32.7787 56.2487 36.2731 57.699 38.899 60.3322L41.1248 62.5643C41.4546 62.8951 41.9024 63.0809 42.3695 63.0809H52.7348V76.9902ZM52.7884 59.5665H43.099L41.3885 57.8511C38.4236 54.8778 34.5755 53.1089 30.4341 52.7879V43.0985L32.1496 41.388C35.0762 38.4696 36.8786 34.5381 37.2101 30.4334H46.902L48.6125 32.1489C51.5774 35.1222 55.4257 36.8909 59.5671 37.2121V46.9017L57.8516 48.6122C54.8783 51.5768 53.1094 55.4251 52.7884 59.5665ZM86.219 69.0953C85.9882 69.4321 85.6396 69.6566 85.2374 69.7276C84.4575 69.8657 83.7006 69.3707 83.5125 68.6024L82.6482 65.0773C82.3755 63.9653 81.3511 63.2592 80.2164 63.3956C79.08 63.5329 78.2552 64.4633 78.2552 65.608V82.0298C78.2552 82.8221 77.6108 83.4665 76.8187 83.4665C76.0845 83.4665 75.4782 82.9126 75.3933 82.2008L75.3823 72.4726C75.3823 71.5019 74.5951 70.7148 73.6245 70.7148C72.6538 70.7148 71.8666 71.5019 71.8666 72.4726L71.8777 85.0469C71.8777 85.839 71.2333 86.4834 70.4411 86.4834C69.649 86.4834 69.0046 85.839 69.0046 85.0469V72.4726C69.0046 71.5019 68.2174 70.7148 67.2468 70.7148C66.2761 70.7148 65.489 71.5019 65.489 72.4726V82.2008C65.404 82.9126 64.7978 83.4665 64.0635 83.4665C63.2713 83.4665 62.6269 82.8221 62.6269 82.0298V72.4726C62.6269 71.5019 61.8397 70.7148 60.8691 70.7148C59.8984 70.7148 59.1113 71.5019 59.1113 72.4726V78.8643C59.0258 79.5755 58.4197 80.1289 57.686 80.1289C56.8938 80.1289 56.2494 79.4845 56.2494 78.6922V71.6199V66.8284V60.9406C56.2494 57.222 57.6997 53.7276 60.3329 51.1014L62.565 48.8757C62.8958 48.5459 63.0816 48.098 63.0816 47.631V37.2659H66.8275H69.8615V42.5979C69.8615 43.5687 70.6487 44.3557 71.6193 44.3557C72.59 44.3557 73.3771 43.5687 73.3771 42.5979V37.2659H76.9901V47.631C76.9901 48.098 77.1761 48.5459 77.5066 48.8757L80.9598 52.3193C82.9235 54.2773 84.2448 56.7498 84.7808 59.4702L86.4535 67.9522C86.5335 68.3526 86.45 68.7587 86.219 69.0953Z" fill="#083A5E"/>
<path d="M72.8629 47.9671C72.5359 47.6399 72.0822 47.452 71.6201 47.452C71.1578 47.452 70.7043 47.6399 70.3775 47.9671C70.0506 48.294 69.8623 48.7474 69.8623 49.2116C69.8623 49.6739 70.0504 50.1274 70.3775 50.4544C70.7043 50.7811 71.1578 50.9677 71.6201 50.9677C72.0824 50.9677 72.5359 50.7811 72.8629 50.4544C73.1898 50.1257 73.3779 49.6739 73.3779 49.2116C73.3779 48.7493 73.19 48.2958 72.8629 47.9671Z" fill="#083A5E"/>
<path d="M22.8873 40.2118C22.5603 39.8831 22.1068 39.6968 21.6445 39.6968C21.1822 39.6968 20.7287 39.8831 20.4018 40.2118C20.075 40.5388 19.8867 40.9905 19.8867 41.4546C19.8867 41.9169 20.0748 42.3704 20.4018 42.6974C20.7287 43.0243 21.1822 43.2124 21.6445 43.2124C22.1068 43.2124 22.5603 43.0243 22.8873 42.6974C23.2141 42.3704 23.4023 41.9169 23.4023 41.4546C23.4023 40.9905 23.2142 40.5388 22.8873 40.2118Z" fill="#083A5E"/>
</g>
<defs>
<clipPath id="clip0">
<rect width="90" height="90" fill="white"/>
</clipPath>
</defs>
</svg>
