<svg width="90" height="90" viewBox="0 0 90 90" fill="none" xmlns="http://www.w3.org/2000/svg">
<path d="M22.5001 22.5C11.7001 22.1 10.3334 32 11.0001 37C8.20012 39.4001 9.83343 41.6667 11.0001 42.5C12.2001 48.9 16.1667 51.5 18 52V54.5C17.1667 54.8333 14.5 56.5 11.5 58C8.4432 59.5284 7.5 62.5 7.5 64V70.5H18.5L22 75L26 70H35.5C35.5 67.5 35.9 62.6 35.5 61C35.1 59.4 28.8333 55.8333 26 54.5V52C31.2 50 32.1667 44.8333 32 42.5C36.4 39.3 33.8333 38.1667 32 38C33.3334 33 33.3001 22.9 22.5001 22.5Z" fill="#EBB11A"/>
<path d="M27.5 9.5V18.5V19H36.5L27.5 9.5Z" fill="#EBB11A"/>
<path d="M68 86.5L68 77.5L68 77L59 77L68 86.5Z" fill="#EBB11A"/>
<path d="M61.5 50.5C63.9 53.3 63.5 57 63 58.5H64.5V62.5C64.5 64.9 66.1667 65.8333 67 66H72.5C74.5 65.6 74.6667 63.5 74.5 62.5V58.5H76C75.6667 57.1667 75.4 54 77 52C79 49.5 83 45 83 40C83 35 78 27 69.5 27C61 27 56.5 34 56.5 40C56.5 46 58.5 47 61.5 50.5Z" fill="#EBB11A"/>
<path d="M24.7048 16.6992H33.5213C33.7329 16.6895 33.9373 16.6191 34.11 16.4964C34.2827 16.3737 34.4163 16.2038 34.495 16.0071C34.5737 15.8104 34.594 15.5952 34.5536 15.3873C34.5132 15.1793 34.4137 14.9874 34.2671 14.8345L30.7088 11.2644C33.1675 9.2886 36.0059 7.8389 39.0479 7.00512C42.0899 6.17133 45.2707 5.97123 48.3932 6.4172C51.5158 6.86318 54.5134 7.94574 57.2004 9.59777C59.8873 11.2498 62.2064 13.4361 64.0137 16.0212C64.1745 16.2503 64.4198 16.4062 64.6956 16.4545C64.9713 16.5028 65.255 16.4395 65.4841 16.2787C65.7133 16.1178 65.8691 15.8726 65.9174 15.5968C65.9657 15.3211 65.9025 15.0374 65.7416 14.8083C63.7578 11.9707 61.2094 9.5734 58.2561 7.76648C55.3027 5.95955 52.0081 4.78196 48.5785 4.30747C45.1489 3.83297 41.6583 4.0718 38.3253 5.00898C34.9923 5.94617 31.8887 7.56153 29.209 9.75386L25.4506 5.99619C25.3112 5.84932 25.1302 5.74869 24.9318 5.70784C24.7335 5.66698 24.5274 5.68786 24.3413 5.76767C24.1532 5.84972 23.9943 5.98659 23.8853 6.1604C23.7763 6.3342 23.7223 6.53685 23.7303 6.74185V15.5589C23.7303 16.1412 24.1224 16.6992 24.7048 16.6992ZM25.8396 9.28804L28.3957 11.8842C28.3973 11.8859 28.3781 11.8878 28.38 11.8898C28.4087 11.9219 28.4291 11.994 28.4604 12.0218L30.9756 14.5898H25.8396V9.28804Z" fill="#083A5E" stroke="#083A5E"/>
<path d="M64.863 73.3008H56.046C55.8343 73.3104 55.63 73.3808 55.4573 73.5036C55.2847 73.6263 55.151 73.7962 55.0724 73.9929C54.9937 74.1896 54.9734 74.4048 55.0138 74.6127C55.0542 74.8207 55.1537 75.0126 55.3003 75.1655L58.8595 78.7356C56.4008 80.7114 53.5624 82.1612 50.5203 82.995C47.4783 83.8289 44.2973 84.029 41.1748 83.583C38.0522 83.137 35.0545 82.0545 32.3675 80.4024C29.6804 78.7503 27.3614 76.5639 25.554 73.9788C25.3933 73.7496 25.1482 73.5937 24.8725 73.5454C24.5968 73.497 24.3132 73.5601 24.0841 73.7208C23.8549 73.8815 23.699 74.1267 23.6507 74.4024C23.6023 74.678 23.6654 74.9616 23.8261 75.1908C25.8099 78.0283 28.3583 80.4257 31.3117 82.2326C34.265 84.0395 37.5597 85.2171 40.9893 85.6916C44.4188 86.1661 47.9095 85.9273 51.2425 84.9901C54.5755 84.0529 57.679 82.4375 60.3588 80.2452L64.1171 84.0038C64.2646 84.1513 64.4525 84.2517 64.6571 84.2924C64.8617 84.3332 65.0738 84.3123 65.2665 84.2325C65.4593 84.1527 65.624 84.0175 65.7399 83.844C65.8558 83.6706 65.9177 83.4667 65.9177 83.2581V74.4411C65.9177 73.8587 65.4453 73.3008 64.863 73.3008ZM63.8083 80.7119L61.2122 78.1158L61.2078 78.1102C61.1793 78.078 61.1487 78.0059 61.1174 77.9781L58.5923 75.4102H63.8083V80.7119Z" fill="#083A5E" stroke="#083A5E"/>
<path d="M32.959 69.6094C33.5413 69.6094 33.9258 69.0886 33.9258 68.5062V60.7757C33.9258 60.7464 33.9685 60.7172 33.966 60.6878C33.8734 59.5713 33.4964 58.497 32.8709 57.5675C32.2453 56.638 31.3921 55.8842 30.3926 55.378C30.3557 55.3604 30.3701 55.3429 30.3312 55.3293L26.3672 53.8798V52.5282C26.359 52.3341 26.2992 52.1456 26.194 51.9822C26.0888 51.8187 25.942 51.6863 25.7687 51.5984C25.7372 51.5808 25.6838 51.5683 25.6512 51.5548L25.6416 51.553L23.5874 50.7093C25.4454 49.8567 27.0395 48.5194 28.2019 46.8377C29.3643 45.1561 30.0522 43.1923 30.1932 41.1529C30.9823 40.8028 31.623 40.1863 32.0033 39.4114C32.3836 38.6365 32.4792 37.7524 32.2734 36.9141C32.1675 36.4709 31.9619 36.0577 31.6722 35.706C31.3825 35.3542 31.0164 35.0732 30.6018 34.8842L30.787 32.1967C30.9569 29.735 30.3601 27.2811 29.0787 25.1724C27.7973 23.0636 25.8942 21.4035 23.6311 20.4203C21.3679 19.437 18.8557 19.1788 16.4399 19.6812C14.024 20.1836 11.8231 21.422 10.1396 23.226C9.01613 24.4192 8.15293 25.8328 7.60476 27.3772C7.0566 28.9216 6.83544 30.5631 6.95531 32.1976L7.14041 34.8814C6.724 35.0698 6.35624 35.351 6.06529 35.7035C5.77435 36.056 5.56794 36.4704 5.46188 36.915C5.25692 37.7542 5.35361 38.6387 5.73502 39.4138C6.11643 40.1889 6.75827 40.8052 7.54822 41.1548C7.68923 43.197 8.37897 45.1632 9.54463 46.8459C10.7103 48.5286 12.3086 49.8653 14.171 50.7151L12.1618 51.5426L12.166 51.5532C12.1322 51.5669 12.057 51.581 12.0243 51.5984C11.851 51.6863 11.7042 51.8187 11.599 51.9822C11.4938 52.1456 11.434 52.3341 11.4258 52.5282V53.8798L7.45031 55.3293C7.41818 55.3434 7.38706 55.3597 7.35715 55.378C6.35086 55.8817 5.48959 56.6336 4.85471 57.5627C4.21982 58.4919 3.83227 59.5675 3.72867 60.688C3.72621 60.7172 3.69141 60.7464 3.69141 60.7759V68.5064C3.70942 68.7998 3.83674 69.0759 4.04824 69.2801C4.25975 69.4843 4.5401 69.6018 4.83398 69.6094H15.1996L18.1406 73.5058C18.2412 73.633 18.3691 73.7359 18.515 73.8069C18.6608 73.8778 18.8207 73.915 18.9829 73.9156C19.1451 73.9162 19.3053 73.8802 19.4516 73.8103C19.5979 73.7404 19.7266 73.6384 19.8281 73.512L22.7681 69.6094H32.959ZM21.5859 59.8239C21.7344 59.8962 21.8979 59.9321 22.063 59.9285C22.2272 59.9274 22.3889 59.8881 22.5353 59.8139C22.6817 59.7396 22.8089 59.6323 22.9068 59.5004L25.6166 55.8843L27.7239 56.6433C26.6483 57.7331 25.9862 59.1637 25.8513 60.6889C25.849 60.7179 25.8398 60.7465 25.8398 60.7757V67.5001H23.0052L21.5859 59.8239ZM11.9531 67.5001V60.7757C11.9531 60.7464 11.958 60.7172 11.9556 60.6878C11.8245 59.16 11.1635 57.726 10.087 56.634L12.1748 55.8809L14.8853 59.4941C15.0471 59.7099 15.2854 59.8555 15.5512 59.901C15.8171 59.9466 16.0903 59.8885 16.3146 59.7388L16.4071 59.7015L14.9629 67.5001H11.9531ZM20.7977 56.7505L23.8583 54.7102L21.818 57.4306L20.7977 56.7505ZM21.2695 53.873L18.8919 55.483L16.5234 53.8789V51.4811C17.2924 51.653 18.0782 51.7382 18.8661 51.7351C19.6749 51.7393 20.4815 51.6495 21.2695 51.4674V53.873ZM16.9952 56.7505L15.9757 57.4306L13.9347 54.7102L16.9952 56.7505ZM31.8164 60.822V67.5001H27.9492V60.822C28.125 59.486 28.7754 58.2705 29.8828 57.5348C30.9902 58.2705 31.8164 59.4844 31.8164 60.822ZM11.6815 24.6655C13.0678 23.1804 14.88 22.161 16.8691 21.7476C18.8582 21.3341 20.9265 21.5468 22.7897 22.3564C24.653 23.1661 26.2198 24.5329 27.2748 26.2691C28.3298 28.0053 28.8212 30.0256 28.6815 32.0524L28.5655 33.7339L27.7116 30.214C27.698 30.1578 27.6798 30.1029 27.6571 30.0497C27.2605 29.1258 26.6121 28.3321 25.7859 27.7592C24.9597 27.1863 23.9891 26.8574 22.9848 26.8099L21.9795 26.7654C21.8036 26.7579 21.6286 26.7945 21.4704 26.8718C21.3122 26.949 21.1758 27.0645 21.0735 27.2078C20.157 28.4952 18.9143 29.5154 17.4732 30.1638C16.032 30.8121 14.4443 31.0653 12.873 30.8973L11.183 30.7155C10.9868 30.6944 10.7883 30.7128 10.5993 30.7697C10.4103 30.8265 10.2346 30.9207 10.0826 31.0467C9.93062 31.1726 9.80544 31.3277 9.71444 31.5029C9.62345 31.678 9.5685 31.8697 9.55283 32.0664L9.29285 35.3194L9.28477 35.3164L9.05977 32.0524C8.96102 30.7066 9.14309 29.3551 9.59442 28.0834C10.0458 26.8118 10.7565 25.6479 11.6815 24.6655V24.6655ZM9.63281 40.3716C9.63282 40.1234 9.54533 39.8832 9.38573 39.6932C9.22613 39.5032 9.00465 39.3755 8.76023 39.3327C8.39749 39.2694 8.06877 39.08 7.83214 38.7979C7.5955 38.5158 7.46618 38.1591 7.46701 37.7909C7.46694 37.6648 7.48193 37.5391 7.51166 37.4165C7.55862 37.2109 7.67735 37.0287 7.84652 36.9027C7.96056 37.0028 8.08628 37.0887 8.22094 37.1586C8.25012 37.1736 8.28 37.1873 8.31041 37.1994C9.84885 37.8159 10.3122 37.8899 10.7889 37.5946C10.932 37.5056 11.0522 37.3844 11.14 37.2406C11.2278 37.0968 11.2808 36.9345 11.2946 36.7666L11.6051 32.8819L12.6489 32.9942C14.4943 33.1914 16.3597 32.9192 18.0719 32.2029C19.7841 31.4865 21.2876 30.3493 22.4429 28.8967L22.8932 28.9166C23.4866 28.9448 24.0608 29.1354 24.5532 29.4678C25.0455 29.8002 25.437 30.2615 25.685 30.8013L27.2719 37.3427C27.3154 37.5216 27.4049 37.6861 27.5316 37.8197C27.6584 37.9534 27.8179 38.0515 27.9943 38.1043C28.1707 38.1571 28.3579 38.1629 28.5372 38.1209C28.7165 38.0789 28.8817 37.9907 29.0164 37.8651L29.8833 37.0565C29.9129 37.0289 29.9396 36.9992 29.9674 36.9704C30.0952 37.0905 30.1846 37.2457 30.2245 37.4165C30.2754 37.6244 30.2832 37.8405 30.2473 38.0516C30.2115 38.2626 30.1329 38.464 30.0163 38.6435C29.8997 38.823 29.7476 38.9768 29.5693 39.0952C29.3911 39.2137 29.1905 39.2945 28.9798 39.3325C28.7346 39.3795 28.5135 39.5105 28.3545 39.703C28.1956 39.8956 28.1088 40.1375 28.1092 40.3872C28.1082 41.6004 27.8682 42.8015 27.403 43.9219C26.9378 45.0423 26.2564 46.0602 25.3978 46.9173C24.5393 47.7744 23.5203 48.454 22.3991 48.9173C21.2778 49.3807 20.0763 49.6186 18.8632 49.6176C17.65 49.6165 16.4489 49.3766 15.3285 48.9114C14.208 48.4461 13.1902 47.7648 12.3331 46.9062C10.6021 45.1723 9.63074 42.8217 9.63281 40.3716V40.3716ZM5.80078 60.822C5.8826 60.16 6.10536 59.5232 6.45407 58.9546C6.80278 58.386 7.26933 57.8988 7.82227 57.5257C8.37515 57.8988 8.84165 58.3861 9.19036 58.9547C9.53906 59.5233 9.76186 60.16 9.84375 60.822V67.5001H5.80078V60.822ZM18.9844 71.0909L16.9386 68.364L18.8561 58.0457L18.8965 58.0188L19.1392 58.1807L21.0291 68.3647L18.9844 71.0909Z" fill="#083A5E" stroke="#083A5E"/>
<path d="M76.4837 27.9012C75.0672 26.557 73.3887 25.5195 71.5531 24.8535C69.7175 24.1875 67.7642 23.9073 65.8153 24.0305C58.6008 24.5051 52.7441 30.5024 52.482 37.6823C52.4008 39.7228 52.7583 41.7569 53.5304 43.6473C54.3026 45.5378 55.4713 47.2405 56.9577 48.6407C57.8338 49.4842 58.4965 50.5242 58.8908 51.6747C59.2851 52.8252 59.3998 54.053 59.2253 55.2566L59.0859 56.3251C59.0519 56.4932 59.0535 56.6665 59.0906 56.8339C59.1276 57.0013 59.1994 57.1591 59.3012 57.297C59.4239 57.4646 59.5848 57.6006 59.7705 57.6935C59.9562 57.7865 60.1614 57.8338 60.3691 57.8316H60.8203V61.0254C60.8135 61.5076 60.9033 61.9862 61.0845 62.4331C61.2657 62.8801 61.5345 63.2861 61.8752 63.6274C62.2159 63.9688 62.6215 64.2384 63.0681 64.4203C63.5147 64.6023 63.9932 64.693 64.4754 64.6871H68.9427C69.4249 64.693 69.9034 64.6023 70.35 64.4203C70.7965 64.2384 71.2021 63.9688 71.5428 63.6274C71.8835 63.2861 72.1524 62.8801 72.3335 62.4331C72.5147 61.9862 72.6045 61.5076 72.5977 61.0254V57.8316H72.8965C72.9106 57.8316 72.9408 57.8474 72.9549 57.8471C73.1366 57.8443 73.3161 57.8055 73.4827 57.733C73.6494 57.6604 73.8001 57.5555 73.9259 57.4244C74.0518 57.2932 74.1504 57.1384 74.2161 56.9689C74.2817 56.7994 74.3131 56.6185 74.3084 56.4368C74.3084 56.4269 74.3084 56.4192 74.3072 56.4093L74.2096 54.5556V54.5508C74.1321 53.4613 74.2939 52.3681 74.6836 51.3478C75.0734 50.3275 75.6817 49.4048 76.4659 48.6446C76.6649 48.4575 76.8613 48.2617 77.0499 48.0627C79.6477 45.3138 81.0474 41.6456 80.9411 37.8648C80.8349 34.084 79.2313 30.5002 76.4831 27.9015L76.4837 27.9012ZM68.9427 62.5777H64.4754C63.661 62.5777 62.9865 62.0503 62.871 61.3472H70.547C70.4315 62.0503 69.7571 62.5777 68.9427 62.5777ZM70.4883 59.2378H62.9297V57.8316H70.4883V59.2378ZM66.709 46.5605C66.465 46.5605 66.2265 46.4882 66.0236 46.3527C65.8207 46.2172 65.6626 46.0245 65.5692 45.7991C65.4758 45.5737 65.4513 45.3256 65.4989 45.0863C65.5465 44.847 65.6639 44.6272 65.8365 44.4546C66.009 44.2821 66.2288 44.1646 66.4681 44.117C66.7074 44.0693 66.9555 44.0938 67.1809 44.1871C67.4063 44.2805 67.599 44.4386 67.7346 44.6415C67.8701 44.8444 67.9425 45.0829 67.9425 45.3269C67.9421 45.6539 67.8121 45.9675 67.5808 46.1988C67.3496 46.43 67.0361 46.5601 66.709 46.5605V46.5605ZM78.0694 42.5247C77.5026 44.045 76.635 45.4353 75.5185 46.6124C75.3578 46.782 75.1906 46.9488 75.0191 47.11C74.0114 48.0779 73.2282 49.2549 72.7245 50.5582C72.2208 51.8615 72.009 53.2593 72.1039 54.6533L72.161 55.7222H67.6758V48.4976C68.3545 48.2916 68.9483 47.8715 69.3686 47.3002C69.7889 46.7289 70.0132 46.037 70.0079 45.3278C70.0099 44.8901 69.9255 44.4563 69.7595 44.0513C69.5936 43.6462 69.3494 43.2779 69.041 42.9674C68.7325 42.6569 68.3658 42.4103 67.9619 42.2417C67.5579 42.0731 67.1247 41.9858 66.687 41.9849C65.7975 41.9849 64.9439 42.336 64.3119 42.962C63.6798 43.588 63.3205 44.4382 63.312 45.3278C63.3255 46.0215 63.5478 46.6952 63.95 47.2607C64.3521 47.8262 64.9155 48.2572 65.5664 48.4976V55.7222H61.2879L61.3159 55.5238C61.535 53.9897 61.3855 52.4254 60.8798 50.9606C60.374 49.4958 59.5265 48.1725 58.4074 47.1005C57.1392 45.908 56.142 44.457 55.4834 42.8456C54.8248 41.2342 54.5201 39.5001 54.59 37.7607C54.813 31.6446 59.8047 26.5382 65.9454 26.1349C67.9671 26.0125 69.9874 26.397 71.8227 27.2536C73.658 28.1102 75.2502 29.4118 76.4548 31.0401C77.6593 32.6683 78.438 34.5717 78.7201 36.5774C79.0022 38.583 78.7788 40.6274 78.0701 42.5247H78.0694Z" fill="#083A5E" stroke="#083A5E"/>
</svg>
