<svg width="92" height="90" viewBox="0 0 92 90" fill="none" xmlns="http://www.w3.org/2000/svg">
<path d="M32.5 48H5L7.5 54.5C8.7 55.7 10.6667 56.3333 11.5 56.5H25C27.4 56.5 28.6667 55.1667 29 54.5L32.5 48Z" fill="#EBB11A"/>
<path d="M91.5 48H64L66.5 54.5C67.7 55.7 69.6667 56.3333 70.5 56.5H84C86.4 56.5 87.6667 55.1667 88 54.5L91.5 48Z" fill="#EBB11A"/>
<path fill-rule="evenodd" clip-rule="evenodd" d="M52 80V39.5L56 29.5L76 20H52V12.5L48.5 6.5L44 12.5V20H19L40.5 29.5L44 39.5V80H26C23.2386 80 21 82.2386 21 85V89H76V85C76 82.2386 73.7614 80 71 80H52Z" fill="#EBB11A"/>
<g clip-path="url(#clip0)">
<path d="M89.9173 45.4241C90.142 44.7436 89.8723 44.1857 89.5773 43.6065C89.2513 42.9664 75.7152 16.2794 75.3781 15.9684C75.0549 15.6702 74.6188 15.5087 74.1805 15.5087H50.4663V9.24446C50.4663 8.91307 50.3728 8.58854 50.1963 8.30813L46.4904 2.41875C46.1685 1.90734 45.6068 1.59705 45.0024 1.59705C44.398 1.59705 43.8363 1.90734 43.5144 2.41875L39.8085 8.30813C39.632 8.58854 39.5384 8.91307 39.5384 9.24446V15.5087H15.5897C15.5115 15.5087 15.4333 15.5078 15.3552 15.5087C14.6898 15.513 14.084 15.8926 13.7899 16.4893L0.178349 44.0968C-0.0707629 44.6012 -0.0570502 45.2235 0.212279 45.717L3.19969 51.1855C4.55882 53.6736 7.16457 55.2193 9.99973 55.2193H21.3564C24.2747 55.2193 26.9156 53.6068 28.2489 51.0109L30.9884 45.6774C31.2416 45.1841 31.2432 44.5706 30.9913 44.0766L19.0226 20.5723L35.6796 27.3931L39.3769 35.7745V46.6628C39.3769 47.6338 40.1641 48.4208 41.1349 48.4208C42.1057 48.4208 42.8929 47.6338 42.8929 46.6628V35.404C42.8929 35.1597 42.8419 34.9181 42.7433 34.6945L39.6989 27.793H50.0848L47.0404 34.6945C46.9418 34.9181 46.8908 35.1597 46.8908 35.404V74.6912H42.8929V62.4838C42.8929 61.5128 42.1057 60.7258 41.1349 60.7258C40.1641 60.7258 39.3769 61.5128 39.3769 62.4838V74.6912H20.8684C17.9875 74.6912 15.6437 77.035 15.6437 79.9158V86.6457C15.6437 87.6167 16.4309 88.4038 17.4017 88.4038H73.4827C74.4535 88.4038 75.2408 87.6167 75.2408 86.6457V79.9158C75.2408 77.035 72.897 74.6912 70.0161 74.6912H50.4067V35.7741L54.104 27.3927L70.5621 20.6533L59.0036 44.0966C58.7545 44.601 58.7682 45.2233 59.0376 45.7168L62.025 51.1853C63.3841 53.6735 65.9899 55.2191 68.825 55.2191H80.1817C83.1 55.2191 85.7409 53.6066 87.0742 51.0107L89.8137 45.6772C89.8547 45.5974 89.8892 45.5094 89.9173 45.4241ZM71.7244 79.9153V84.8872H19.1594V79.9153C19.1594 78.9732 19.9257 78.2067 20.868 78.2067H70.0159C70.958 78.2069 71.7244 78.9734 71.7244 79.9153ZM75.9515 24.5966L85.3819 43.116H75.9515V24.5966ZM43.0545 9.75147L45.0024 6.65594L46.9503 9.75147V15.5087H43.0545V9.75147ZM13.8317 24.3554V43.1162H4.58185L13.8317 24.3554ZM25.1212 49.4044C24.3929 50.8223 22.9504 51.7032 21.3564 51.7032H9.99973C8.45091 51.7032 7.02779 50.8588 6.2852 49.4997L4.7188 46.632H26.5452L25.1212 49.4044ZM17.3478 43.1162V25.0315L26.5566 43.116H17.3478V43.1162ZM35.2437 19.0247V23.415L24.5223 19.0247H35.2437ZM38.7598 24.2766V19.0247H51.0236V24.2766H38.7598ZM54.5395 23.415V19.0247H65.261L54.5395 23.415ZM72.4355 24.8046V43.1162H63.4073L72.4355 24.8046ZM83.9465 49.4044C83.2182 50.8223 81.7757 51.7032 80.1817 51.7032H68.825C67.2762 51.7032 65.8531 50.8588 65.1105 49.4997L63.5441 46.632H85.3705L83.9465 49.4044Z" fill="#083A5E"/>
<path d="M39.6712 55.4676C40.2071 56.2638 41.3101 56.4832 42.1096 55.9528C42.9094 55.4224 43.1226 54.3124 42.5948 53.5162C42.0655 52.7179 40.953 52.5016 40.1584 53.031C39.3632 53.5605 39.1403 54.6719 39.6712 55.4676Z" fill="#083A5E"/>
</g>
<defs>
<clipPath id="clip0">
<rect width="90" height="90" fill="white"/>
</clipPath>
</defs>
</svg>
