<svg width="90" height="90" viewBox="0 0 90 90" fill="none" xmlns="http://www.w3.org/2000/svg">
<path fill-rule="evenodd" clip-rule="evenodd" d="M24.2708 6C24.2708 4.89543 25.1663 4 26.2708 4H32.747C33.8516 4 34.747 4.89543 34.747 6V9.2906C34.747 10.1213 35.2668 10.8539 36.0123 11.2203C36.6901 11.5535 37.3386 11.9371 37.953 12.3663C38.6463 12.8506 39.5583 12.9455 40.2908 12.5226L43.4228 10.7143C44.3794 10.162 45.6026 10.4898 46.1549 11.4463L49.393 17.0549C49.9452 18.0115 49.6175 19.2346 48.6609 19.7869L45.2948 21.7304C44.5888 22.138 44.2136 22.933 44.2532 23.7472C44.2649 23.9887 44.2708 24.2318 44.2708 24.4762C44.2708 24.8347 44.2581 25.1903 44.2329 25.5424C44.1736 26.3741 44.5482 27.1947 45.2703 27.6116L48.7032 29.5937C49.6598 30.1459 49.9876 31.3691 49.4353 32.3257L46.1972 37.9342C45.6449 38.8908 44.4217 39.2186 43.4651 38.6663L39.9714 36.6492C39.2549 36.2355 38.3645 36.3169 37.6757 36.7752C37.1444 37.1286 36.589 37.4486 36.0123 37.7321C35.2668 38.0985 34.747 38.8311 34.747 39.6618V42C34.747 43.1046 33.8516 44 32.747 44H26.2708C25.1663 44 24.2708 43.1046 24.2708 42V39.6618C24.2708 38.8311 23.7511 38.0985 23.0056 37.7321C22.5131 37.49 22.0361 37.2213 21.5765 36.9279C20.8919 36.4909 20.0195 36.4203 19.3162 36.8264L16.0029 38.7393C15.0463 39.2916 13.8231 38.9639 13.2709 38.0073L10.0328 32.3987C9.48048 31.4421 9.80824 30.219 10.7648 29.6667L13.7742 27.9292C14.5095 27.5046 14.8833 26.6628 14.8071 25.8172C14.7674 25.3755 14.747 24.9282 14.747 24.4762C14.747 24.1927 14.755 23.911 14.7708 23.6314C14.8171 22.8111 14.442 22.0074 13.7305 21.5966L10.7225 19.8599C9.76592 19.3077 9.43817 18.0845 9.99045 17.1279L13.2285 11.5193C13.7808 10.5628 15.004 10.235 15.9606 10.7873L18.8354 12.447C19.5624 12.8668 20.467 12.7766 21.1589 12.3012C21.7453 11.8982 22.3622 11.5365 23.0056 11.2203C23.7511 10.8539 24.2708 10.1213 24.2708 9.2906V6Z" fill="#EBB11A"/>
<path fill-rule="evenodd" clip-rule="evenodd" d="M59.5511 26C59.5511 24.8954 60.4465 24 61.5511 24H68.0273C69.1319 24 70.0273 24.8954 70.0273 26V29.2906C70.0273 30.1213 70.547 30.8539 71.2926 31.2203C71.9704 31.5535 72.6189 31.9371 73.2332 32.3663C73.9266 32.8506 74.8386 32.9455 75.571 32.5226L78.7031 30.7143C79.6597 30.162 80.8829 30.4898 81.4351 31.4463L84.6732 37.0549C85.2255 38.0115 84.8978 39.2346 83.9412 39.7869L80.5751 41.7304C79.8691 42.138 79.4938 42.933 79.5334 43.7472C79.5452 43.9887 79.5511 44.2318 79.5511 44.4762C79.5511 44.8347 79.5383 45.1903 79.5132 45.5424C79.4538 46.3741 79.8284 47.1947 80.5505 47.6116L83.9835 49.5937C84.9401 50.1459 85.2678 51.3691 84.7156 52.3257L81.4775 57.9342C80.9252 58.8908 79.702 59.2186 78.7454 58.6663L75.2517 56.6492C74.5351 56.2355 73.6448 56.3169 72.956 56.7752C72.4247 57.1286 71.8692 57.4486 71.2926 57.7321C70.547 58.0985 70.0273 58.8311 70.0273 59.6618V62C70.0273 63.1046 69.1319 64 68.0273 64H61.5511C60.4466 64 59.5511 63.1046 59.5511 62V59.6618C59.5511 58.8311 59.0314 58.0985 58.2859 57.7321C57.7934 57.49 57.3164 57.2213 56.8567 56.9279C56.1722 56.4909 55.2998 56.4203 54.5965 56.8264L51.2832 58.7393C50.3266 59.2916 49.1034 58.9639 48.5511 58.0073L45.313 52.3987C44.7608 51.4421 45.0885 50.219 46.0451 49.6667L49.0545 47.9292C49.7898 47.5046 50.1635 46.6628 50.0874 45.8172C50.0476 45.3755 50.0273 44.9282 50.0273 44.4762C50.0273 44.1927 50.0353 43.911 50.0511 43.6314C50.0974 42.8111 49.7223 42.0074 49.0108 41.5966L46.0028 39.8599C45.0462 39.3077 44.7184 38.0845 45.2707 37.1279L48.5088 31.5193C49.0611 30.5628 50.2843 30.235 51.2409 30.7873L54.1156 32.447C54.8427 32.8668 55.7472 32.7766 56.4391 32.3012C57.0255 31.8982 57.6425 31.5365 58.2859 31.2203C59.0314 30.8539 59.5511 30.1213 59.5511 29.2906V26Z" fill="#EBB11A"/>
<path fill-rule="evenodd" clip-rule="evenodd" d="M24.3133 46C24.3133 44.8954 25.2088 44 26.3133 44H32.7895C33.8941 44 34.7895 44.8954 34.7895 46V49.2906C34.7895 50.1213 35.3093 50.8539 36.0548 51.2203C36.7326 51.5535 37.3811 51.9371 37.9954 52.3663C38.6888 52.8506 39.6008 52.9455 40.3332 52.5226L43.4653 50.7143C44.4219 50.162 45.6451 50.4898 46.1973 51.4463L49.4354 57.0549C49.9877 58.0115 49.66 59.2346 48.7034 59.7869L45.3373 61.7304C44.6313 62.138 44.256 62.933 44.2956 63.7472C44.3074 63.9887 44.3133 64.2318 44.3133 64.4762C44.3133 64.8347 44.3005 65.1903 44.2754 65.5424C44.216 66.3741 44.5906 67.1947 45.3127 67.6116L48.7457 69.5937C49.7023 70.1459 50.03 71.3691 49.4778 72.3257L46.2397 77.9342C45.6874 78.8908 44.4642 79.2186 43.5076 78.6663L40.0139 76.6492C39.2974 76.2355 38.407 76.3169 37.7182 76.7752C37.1869 77.1286 36.6314 77.4486 36.0548 77.7321C35.3092 78.0985 34.7895 78.8311 34.7895 79.6618V82C34.7895 83.1046 33.8941 84 32.7895 84H26.3133C25.2088 84 24.3133 83.1046 24.3133 82V79.6618C24.3133 78.8311 23.7936 78.0985 23.0481 77.7321C22.5556 77.49 22.0786 77.2213 21.6189 76.9279C20.9344 76.4909 20.062 76.4203 19.3587 76.8264L16.0454 78.7393C15.0888 79.2916 13.8656 78.9639 13.3133 78.0073L10.0752 72.3987C9.52296 71.4421 9.85072 70.219 10.8073 69.6667L13.8167 67.9292C14.552 67.5046 14.9258 66.6628 14.8496 65.8172C14.8098 65.3755 14.7895 64.9282 14.7895 64.4762C14.7895 64.1927 14.7975 63.911 14.8133 63.6314C14.8596 62.8111 14.4845 62.0074 13.773 61.5966L10.765 59.8599C9.8084 59.3077 9.48065 58.0845 10.0329 57.1279L13.271 51.5193C13.8233 50.5628 15.0465 50.235 16.0031 50.7873L18.8778 52.447C19.6049 52.8668 20.5094 52.7766 21.2014 52.3012C21.7878 51.8982 22.4047 51.5365 23.0481 51.2203C23.7936 50.8539 24.3133 50.1213 24.3133 49.2906V46Z" fill="#EBB11A"/>
<path d="M6.00022 16.8709L4.48467 15.9959L6.00022 16.8709ZM10.0845 28.0902L10.9595 29.6058L10.0845 28.0902ZM6.04465 32.7321L7.5602 31.8571L6.04465 32.7321ZM12.2767 39.5263L11.4017 38.0107L11.4017 38.0107L12.2767 39.5263ZM9.54465 38.7942L8.02911 39.6692L9.54465 38.7942ZM18.159 37.538L19.107 36.067L18.159 37.538ZM15.9004 37.4341L15.0254 35.9186L15.9004 37.4341ZM19.7781 38.449L19.0132 40.0229L19.7781 38.449ZM33.3112 38.449L32.5462 36.875L33.3112 38.449ZM44.0173 38.7176L42.5017 37.8426L44.0173 38.7176ZM41.2852 39.4496L40.4102 40.9652L41.2852 39.4496ZM46.7852 29.9233L47.6602 28.4078L46.7852 29.9233ZM47.5173 32.6554L46.0017 31.7804L47.5173 32.6554ZM41.9997 25.6887L43.7447 25.821L41.9997 25.6887ZM43.034 27.7576L43.909 26.242L43.034 27.7576ZM43.0614 21.6506L43.9364 23.1661L43.0614 21.6506ZM42.0226 23.6672L43.7702 23.5747L42.0226 23.6672ZM47.4729 16.7942L45.9573 17.6692L47.4729 16.7942ZM46.7408 19.5263L45.8658 18.0107L46.7408 19.5263ZM43.9729 10.7321L45.4884 9.85705L43.9729 10.7321ZM35.4686 11.8251L34.4599 13.2552L35.4686 11.8251ZM37.8045 11.984L36.9295 10.4684L37.8045 11.984ZM33.3112 10.551L32.5462 12.125L32.5462 12.125L33.3112 10.551ZM37.4708 37.2473L38.3458 35.7318L37.4708 37.2473ZM35.1768 37.3758L34.201 35.9231L35.1768 37.3758ZM30.0446 1.25H23.0446V4.75H30.0446V1.25ZM33.7946 8.62413V5H30.2946V8.62413H33.7946ZM36.4773 10.3951C35.7199 9.86082 34.9172 9.38586 34.0761 8.97708L32.5462 12.125C33.2161 12.4505 33.8558 12.829 34.4599 13.2552L36.4773 10.3951ZM40.3658 8.48446L36.9295 10.4684L38.6795 13.4995L42.1158 11.5155L40.3658 8.48446ZM48.9884 15.9192L45.4884 9.85705L42.4573 11.6071L45.9573 17.6692L48.9884 15.9192ZM43.9364 23.1661L47.6158 21.0418L45.8658 18.0107L42.1864 20.1351L43.9364 23.1661ZM43.7946 24.5C43.7946 24.1897 43.7864 23.8812 43.7702 23.5747L40.2751 23.7597C40.2881 24.0047 40.2946 24.2515 40.2946 24.5H43.7946ZM43.7447 25.821C43.7778 25.3847 43.7946 24.9442 43.7946 24.5H40.2946C40.2946 24.8557 40.2812 25.208 40.2547 25.5564L43.7447 25.821ZM47.6602 28.4078L43.909 26.242L42.159 29.2731L45.9102 31.4389L47.6602 28.4078ZM45.5328 39.5926L49.0328 33.5304L46.0017 31.7804L42.5017 37.8426L45.5328 39.5926ZM36.5958 38.7629L40.4102 40.9652L42.1602 37.9341L38.3458 35.7318L36.5958 38.7629ZM34.0761 40.0229C34.7981 39.6721 35.4917 39.2725 36.1526 38.8284L34.201 35.9231C33.6739 36.2772 33.1211 36.5956 32.5462 36.875L34.0761 40.0229ZM33.7946 43V40.3759H30.2946V43H33.7946ZM23.0446 46.75H30.0446V43.25H23.0446V46.75ZM19.2946 40.3759V43H22.7946V40.3759H19.2946ZM17.211 39.009C17.7888 39.3814 18.3904 39.7203 19.0132 40.0229L20.543 36.875C20.0471 36.634 19.5677 36.364 19.107 36.067L17.211 39.009ZM13.1517 41.0418L16.7754 38.9497L15.0254 35.9186L11.4017 38.0107L13.1517 41.0418ZM4.52911 33.6071L8.02911 39.6692L11.0602 37.9192L7.5602 31.8571L4.52911 33.6071ZM9.20954 26.5747L5.9017 28.4845L7.6517 31.5155L10.9595 29.6058L9.20954 26.5747ZM9.29463 24.5C9.29463 25.0538 9.32079 25.6021 9.37202 26.1435L12.8565 25.8137C12.8156 25.3818 12.7946 24.9436 12.7946 24.5H9.29463ZM9.32679 23.4388C9.30545 23.79 9.29463 24.1439 9.29463 24.5H12.7946C12.7946 24.2147 12.8033 23.9317 12.8203 23.6512L9.32679 23.4388ZM10.9112 19.9949L7.60727 18.0874L5.85727 21.1185L9.16124 23.026L10.9112 19.9949ZM7.51576 17.7459L11.0158 11.6837L7.98467 9.93371L4.48467 15.9959L7.51576 17.7459ZM11.3573 11.5922L14.5229 13.4199L16.2729 10.3888L13.1073 8.56112L11.3573 11.5922ZM19.0132 8.97708C18.2126 9.36613 17.447 9.81512 16.722 10.3181L18.7171 13.1938C19.2953 12.7926 19.9055 12.4348 20.543 12.125L19.0132 8.97708ZM19.2946 5V8.62413H22.7946V5H19.2946ZM20.543 12.125C21.8114 11.5086 22.7946 10.2108 22.7946 8.62413H19.2946C19.2946 8.69891 19.2391 8.86724 19.0132 8.97708L20.543 12.125ZM7.60727 18.0874C7.48769 18.0184 7.44673 17.8655 7.51576 17.7459L4.48467 15.9959C3.44914 17.7895 4.06367 20.0829 5.85727 21.1185L7.60727 18.0874ZM12.8203 23.6512C12.9051 22.257 12.2697 20.7793 10.9112 19.9949L9.16124 23.026C9.22575 23.0633 9.34174 23.193 9.32679 23.4388L12.8203 23.6512ZM10.9595 29.6058C12.3641 28.7948 12.9922 27.2482 12.8565 25.8137L9.37202 26.1435C9.39626 26.3996 9.27562 26.5365 9.20954 26.5747L10.9595 29.6058ZM7.5602 31.8571C7.49116 31.7375 7.53213 31.5846 7.6517 31.5155L5.9017 28.4845C4.1081 29.52 3.49357 31.8135 4.52911 33.6071L7.5602 31.8571ZM11.4017 38.0107C11.2821 38.0798 11.1292 38.0388 11.0602 37.9192L8.02911 39.6692C9.06464 41.4628 11.3581 42.0774 13.1517 41.0418L11.4017 38.0107ZM19.107 36.067C17.9462 35.3189 16.3683 35.1433 15.0254 35.9186L16.7754 38.9497C16.8392 38.9129 17.0066 38.8772 17.211 39.009L19.107 36.067ZM22.7946 40.3759C22.7946 38.7892 21.8114 37.4914 20.543 36.875L19.0132 40.0229C19.2392 40.1328 19.2946 40.3011 19.2946 40.3759H22.7946ZM23.0446 43.25C22.9066 43.25 22.7946 43.1381 22.7946 43H19.2946C19.2946 45.0711 20.9736 46.75 23.0446 46.75V43.25ZM30.2946 43C30.2946 43.1381 30.1827 43.25 30.0446 43.25V46.75C32.1157 46.75 33.7946 45.0711 33.7946 43H30.2946ZM32.5462 36.875C31.2779 37.4914 30.2946 38.7892 30.2946 40.3759H33.7946C33.7946 40.3011 33.8501 40.1328 34.0761 40.0229L32.5462 36.875ZM42.5017 37.8426C42.4327 37.9621 42.2798 38.0031 42.1602 37.9341L40.4102 40.9652C42.2038 42.0007 44.4973 41.3862 45.5328 39.5926L42.5017 37.8426ZM45.9102 31.4389C46.0298 31.5079 46.0708 31.6608 46.0017 31.7804L49.0328 33.5304C50.0684 31.7368 49.4538 29.4433 47.6602 28.4078L45.9102 31.4389ZM40.2547 25.5564C40.1476 26.9687 40.78 28.477 42.159 29.2731L43.909 26.242C43.8438 26.2044 43.7257 26.0715 43.7447 25.821L40.2547 25.5564ZM42.1864 20.1351C40.8386 20.9132 40.2018 22.3751 40.2751 23.7597L43.7702 23.5747C43.7573 23.3312 43.8722 23.2032 43.9364 23.1661L42.1864 20.1351ZM45.9573 17.6692C46.0263 17.7888 45.9854 17.9417 45.8658 18.0107L47.6158 21.0418C49.4094 20.0063 50.0239 17.7128 48.9884 15.9192L45.9573 17.6692ZM42.1158 11.5155C42.2354 11.4465 42.3883 11.4875 42.4573 11.6071L45.4884 9.85705C44.4529 8.06345 42.1594 7.44892 40.3658 8.48446L42.1158 11.5155ZM34.4599 13.2552C35.6334 14.0829 37.2803 14.3073 38.6795 13.4995L36.9295 10.4684C36.8636 10.5064 36.6861 10.5423 36.4773 10.3951L34.4599 13.2552ZM30.2946 8.62413C30.2946 10.2108 31.2779 11.5086 32.5462 12.125L34.0761 8.97708C33.8501 8.86724 33.7946 8.69891 33.7946 8.62413H30.2946ZM14.5229 13.4199C15.9115 14.2216 17.5456 14.0065 18.7171 13.1938L16.722 10.3181C16.514 10.4624 16.3383 10.4266 16.2729 10.3888L14.5229 13.4199ZM23.0446 1.25C20.9736 1.25 19.2946 2.92893 19.2946 5H22.7946C22.7946 4.86193 22.9066 4.75 23.0446 4.75V1.25ZM38.3458 35.7318C36.9774 34.9418 35.3681 35.1391 34.201 35.9231L36.1526 38.8284C36.3591 38.6898 36.5311 38.7255 36.5958 38.7629L38.3458 35.7318ZM11.0158 11.6837C11.0848 11.5641 11.2377 11.5232 11.3573 11.5922L13.1073 8.56112C11.3137 7.52558 9.02021 8.14011 7.98467 9.93371L11.0158 11.6837ZM30.0446 4.75C30.1827 4.75 30.2946 4.86193 30.2946 5H33.7946C33.7946 2.92894 32.1157 1.25 30.0446 1.25V4.75Z" fill="#083A5E"/>
<path d="M43.0447 37.8709L41.5291 36.9959L43.0447 37.8709ZM47.129 49.0902L48.004 50.6058L47.129 49.0902ZM43.0891 53.7321L44.6046 52.8571L43.0891 53.7321ZM49.3211 60.5263L48.4461 59.0107L48.4461 59.0107L49.3211 60.5263ZM46.5891 59.7942L45.0735 60.6692L46.5891 59.7942ZM55.2034 58.538L56.1515 57.067L55.2034 58.538ZM52.9448 58.4341L52.0698 56.9186L52.9448 58.4341ZM56.8225 59.449L56.0576 61.0229L56.8225 59.449ZM70.3556 59.449L69.5907 57.875L70.3556 59.449ZM81.0617 59.7176L79.5462 58.8426L81.0617 59.7176ZM78.3297 60.4496L77.4547 61.9652L78.3297 60.4496ZM83.8297 50.9233L84.7047 49.4078L83.8297 50.9233ZM84.5617 53.6554L83.0462 52.7804L84.5617 53.6554ZM79.0442 46.6887L80.7892 46.821L79.0442 46.6887ZM80.0784 48.7576L80.9534 47.242L80.0784 48.7576ZM80.1058 42.6506L80.9808 44.1661L80.1058 42.6506ZM79.0671 44.6672L80.8146 44.5747L79.0671 44.6672ZM84.5173 37.7942L83.0017 38.6692L84.5173 37.7942ZM83.7852 40.5263L82.9102 39.0107L83.7852 40.5263ZM81.0173 31.7321L82.5328 30.8571L81.0173 31.7321ZM72.513 32.8251L71.5043 34.2552L72.513 32.8251ZM74.8489 32.984L73.9739 31.4684L74.8489 32.984ZM70.3556 31.551L69.5907 33.125L69.5907 33.125L70.3556 31.551ZM74.5152 58.2473L75.3902 56.7318L74.5152 58.2473ZM72.2212 58.3758L71.2454 56.9231L72.2212 58.3758ZM67.0891 22.25H60.0891V25.75H67.0891V22.25ZM70.8391 29.6241V26H67.3391V29.6241H70.8391ZM73.5217 31.3951C72.7643 30.8608 71.9617 30.3859 71.1205 29.9771L69.5907 33.125C70.2605 33.4505 70.9002 33.829 71.5043 34.2552L73.5217 31.3951ZM77.4102 29.4845L73.9739 31.4684L75.7239 34.4995L79.1602 32.5155L77.4102 29.4845ZM86.0328 36.9192L82.5328 30.8571L79.5017 32.6071L83.0017 38.6692L86.0328 36.9192ZM80.9808 44.1661L84.6602 42.0418L82.9102 39.0107L79.2308 41.1351L80.9808 44.1661ZM80.8391 45.5C80.8391 45.1897 80.8309 44.8812 80.8146 44.5747L77.3195 44.7597C77.3325 45.0047 77.3391 45.2515 77.3391 45.5H80.8391ZM80.7892 46.821C80.8222 46.3847 80.8391 45.9442 80.8391 45.5H77.3391C77.3391 45.8557 77.3256 46.208 77.2992 46.5564L80.7892 46.821ZM84.7047 49.4078L80.9534 47.242L79.2034 50.2731L82.9547 52.4389L84.7047 49.4078ZM82.5773 60.5926L86.0773 54.5304L83.0462 52.7804L79.5462 58.8426L82.5773 60.5926ZM73.6402 59.7629L77.4547 61.9652L79.2047 58.9341L75.3902 56.7318L73.6402 59.7629ZM71.1205 61.0229C71.8425 60.6721 72.5361 60.2725 73.1971 59.8284L71.2454 56.9231C70.7183 57.2772 70.1656 57.5956 69.5907 57.875L71.1205 61.0229ZM70.8391 64V61.3759H67.3391V64H70.8391ZM60.0891 67.75H67.0891V64.25H60.0891V67.75ZM56.3391 61.3759V64H59.8391V61.3759H56.3391ZM54.2554 60.009C54.8332 60.3814 55.4349 60.7203 56.0576 61.0229L57.5875 57.875C57.0916 57.634 56.6122 57.364 56.1515 57.067L54.2554 60.009ZM50.1961 62.0418L53.8198 59.9497L52.0698 56.9186L48.4461 59.0107L50.1961 62.0418ZM41.5735 54.6071L45.0735 60.6692L48.1046 58.9192L44.6046 52.8571L41.5735 54.6071ZM46.254 47.5747L42.9461 49.4845L44.6961 52.5155L48.004 50.6058L46.254 47.5747ZM46.3391 45.5C46.3391 46.0538 46.3652 46.6021 46.4165 47.1435L49.9009 46.8137C49.86 46.3818 49.8391 45.9436 49.8391 45.5H46.3391ZM46.3712 44.4388C46.3499 44.79 46.3391 45.1439 46.3391 45.5H49.8391C49.8391 45.2147 49.8477 44.9317 49.8648 44.6512L46.3712 44.4388ZM47.9557 40.9949L44.6517 39.0874L42.9017 42.1185L46.2057 44.026L47.9557 40.9949ZM44.5602 38.7459L48.0602 32.6837L45.0291 30.9337L41.5291 36.9959L44.5602 38.7459ZM48.4017 32.5922L51.5673 34.4199L53.3173 31.3888L50.1517 29.5611L48.4017 32.5922ZM56.0576 29.9771C55.2571 30.3661 54.4914 30.8151 53.7664 31.3181L55.7615 34.1938C56.3398 33.7926 56.95 33.4348 57.5875 33.125L56.0576 29.9771ZM56.3391 26V29.6241H59.8391V26H56.3391ZM57.5875 33.125C58.8558 32.5086 59.8391 31.2108 59.8391 29.6241H56.3391C56.3391 29.6989 56.2836 29.8672 56.0576 29.9771L57.5875 33.125ZM44.6517 39.0874C44.5321 39.0184 44.4912 38.8655 44.5602 38.7459L41.5291 36.9959C40.4936 38.7895 41.1081 41.0829 42.9017 42.1185L44.6517 39.0874ZM49.8648 44.6512C49.9495 43.257 49.3141 41.7793 47.9557 40.9949L46.2057 44.026C46.2702 44.0633 46.3862 44.193 46.3712 44.4388L49.8648 44.6512ZM48.004 50.6058C49.4086 49.7948 50.0366 48.2482 49.9009 46.8137L46.4165 47.1435C46.4407 47.3996 46.3201 47.5365 46.254 47.5747L48.004 50.6058ZM44.6046 52.8571C44.5356 52.7375 44.5766 52.5846 44.6961 52.5155L42.9461 49.4845C41.1525 50.52 40.538 52.8135 41.5735 54.6071L44.6046 52.8571ZM48.4461 59.0107C48.3266 59.0798 48.1737 59.0388 48.1046 58.9192L45.0735 60.6692C46.1091 62.4628 48.4025 63.0774 50.1961 62.0418L48.4461 59.0107ZM56.1515 57.067C54.9906 56.3189 53.4127 56.1433 52.0698 56.9186L53.8198 59.9497C53.8836 59.9129 54.051 59.8772 54.2554 60.009L56.1515 57.067ZM59.8391 61.3759C59.8391 59.7892 58.8558 58.4914 57.5875 57.875L56.0576 61.0229C56.2836 61.1328 56.3391 61.3011 56.3391 61.3759H59.8391ZM60.0891 64.25C59.951 64.25 59.8391 64.1381 59.8391 64H56.3391C56.3391 66.0711 58.018 67.75 60.0891 67.75V64.25ZM67.3391 64C67.3391 64.1381 67.2271 64.25 67.0891 64.25V67.75C69.1601 67.75 70.8391 66.0711 70.8391 64H67.3391ZM69.5907 57.875C68.3223 58.4914 67.3391 59.7892 67.3391 61.3759H70.8391C70.8391 61.3011 70.8945 61.1328 71.1205 61.0229L69.5907 57.875ZM79.5462 58.8426C79.4771 58.9621 79.3242 59.0031 79.2047 58.9341L77.4547 61.9652C79.2483 63.0007 81.5417 62.3862 82.5773 60.5926L79.5462 58.8426ZM82.9547 52.4389C83.0742 52.5079 83.1152 52.6608 83.0462 52.7804L86.0773 54.5304C87.1128 52.7368 86.4983 50.4433 84.7047 49.4078L82.9547 52.4389ZM77.2992 46.5564C77.1921 47.9687 77.8245 49.477 79.2034 50.2731L80.9534 47.242C80.8882 47.2044 80.7702 47.0715 80.7892 46.821L77.2992 46.5564ZM79.2308 41.1351C77.883 41.9132 77.2462 43.3751 77.3195 44.7597L80.8146 44.5747C80.8017 44.3312 80.9167 44.2032 80.9808 44.1661L79.2308 41.1351ZM83.0017 38.6692C83.0708 38.7888 83.0298 38.9417 82.9102 39.0107L84.6602 42.0418C86.4538 41.0063 87.0684 38.7128 86.0328 36.9192L83.0017 38.6692ZM79.1602 32.5155C79.2798 32.4465 79.4327 32.4875 79.5017 32.6071L82.5328 30.8571C81.4973 29.0635 79.2038 28.4489 77.4102 29.4845L79.1602 32.5155ZM71.5043 34.2552C72.6778 35.0829 74.3248 35.3073 75.7239 34.4995L73.9739 31.4684C73.9081 31.5064 73.7305 31.5423 73.5217 31.3951L71.5043 34.2552ZM67.3391 29.6241C67.3391 31.2108 68.3223 32.5086 69.5907 33.125L71.1205 29.9771C70.8945 29.8672 70.8391 29.6989 70.8391 29.6241H67.3391ZM51.5673 34.4199C52.9559 35.2216 54.5901 35.0065 55.7615 34.1938L53.7664 31.3181C53.5584 31.4624 53.3828 31.4266 53.3173 31.3888L51.5673 34.4199ZM60.0891 22.25C58.018 22.25 56.3391 23.9289 56.3391 26H59.8391C59.8391 25.8619 59.951 25.75 60.0891 25.75V22.25ZM75.3902 56.7318C74.0218 55.9418 72.4126 56.1391 71.2454 56.9231L73.1971 59.8284C73.4035 59.6898 73.5755 59.7255 73.6402 59.7629L75.3902 56.7318ZM48.0602 32.6837C48.1292 32.5641 48.2821 32.5232 48.4017 32.5922L50.1517 29.5611C48.3581 28.5256 46.0646 29.1401 45.0291 30.9337L48.0602 32.6837ZM67.0891 25.75C67.2271 25.75 67.3391 25.8619 67.3391 26H70.8391C70.8391 23.9289 69.1601 22.25 67.0891 22.25V25.75Z" fill="#083A5E"/>
<path d="M6.04465 58.8709L4.52911 57.9959L6.04465 58.8709ZM10.129 70.0902L11.004 71.6058L10.129 70.0902ZM6.08908 74.7321L7.60463 73.8571L6.08908 74.7321ZM12.3211 81.5263L11.4461 80.0107L11.4461 80.0107L12.3211 81.5263ZM9.58908 80.7942L8.07354 81.6692L9.58908 80.7942ZM18.2034 79.538L19.1515 78.067L18.2034 79.538ZM15.9448 79.4341L15.0698 77.9186L15.9448 79.4341ZM19.8225 80.449L19.0576 82.0229L19.8225 80.449ZM33.3556 80.449L32.5907 78.875L33.3556 80.449ZM44.0617 80.7176L42.5462 79.8426L44.0617 80.7176ZM41.3297 81.4496L40.4547 82.9652L41.3297 81.4496ZM46.8297 71.9233L47.7047 70.4078L46.8297 71.9233ZM47.5617 74.6554L46.0462 73.7804L47.5617 74.6554ZM42.0442 67.6887L43.7892 67.821L42.0442 67.6887ZM43.0784 69.7576L43.9534 68.242L43.0784 69.7576ZM43.1058 63.6506L43.9808 65.1661L43.1058 63.6506ZM42.0671 65.6672L43.8146 65.5747L42.0671 65.6672ZM47.5173 58.7942L46.0017 59.6692L47.5173 58.7942ZM46.7852 61.5263L45.9102 60.0107L46.7852 61.5263ZM44.0173 52.7321L45.5328 51.8571L44.0173 52.7321ZM35.513 53.8251L34.5043 55.2552L35.513 53.8251ZM37.8489 53.984L36.9739 52.4684L37.8489 53.984ZM33.3556 52.551L32.5907 54.125L32.5907 54.125L33.3556 52.551ZM37.5152 79.2473L38.3902 77.7318L37.5152 79.2473ZM35.2212 79.3758L34.2454 77.9231L35.2212 79.3758ZM30.0891 43.25H23.0891V46.75H30.0891V43.25ZM33.8391 50.6241V47H30.3391V50.6241H33.8391ZM36.5217 52.3951C35.7643 51.8608 34.9617 51.3859 34.1205 50.9771L32.5907 54.125C33.2605 54.4505 33.9002 54.829 34.5043 55.2552L36.5217 52.3951ZM40.4102 50.4845L36.9739 52.4684L38.7239 55.4995L42.1602 53.5155L40.4102 50.4845ZM49.0328 57.9192L45.5328 51.8571L42.5017 53.6071L46.0017 59.6692L49.0328 57.9192ZM43.9808 65.1661L47.6602 63.0418L45.9102 60.0107L42.2308 62.1351L43.9808 65.1661ZM43.8391 66.5C43.8391 66.1897 43.8309 65.8812 43.8146 65.5747L40.3195 65.7597C40.3325 66.0047 40.3391 66.2515 40.3391 66.5H43.8391ZM43.7892 67.821C43.8222 67.3847 43.8391 66.9442 43.8391 66.5H40.3391C40.3391 66.8557 40.3256 67.208 40.2992 67.5564L43.7892 67.821ZM47.7047 70.4078L43.9534 68.242L42.2034 71.2731L45.9547 73.4389L47.7047 70.4078ZM45.5773 81.5926L49.0773 75.5304L46.0462 73.7804L42.5462 79.8426L45.5773 81.5926ZM36.6402 80.7629L40.4547 82.9652L42.2047 79.9341L38.3902 77.7318L36.6402 80.7629ZM34.1205 82.0229C34.8425 81.6721 35.5361 81.2725 36.1971 80.8284L34.2454 77.9231C33.7183 78.2772 33.1656 78.5956 32.5907 78.875L34.1205 82.0229ZM33.8391 85V82.3759H30.3391V85H33.8391ZM23.0891 88.75H30.0891V85.25H23.0891V88.75ZM19.3391 82.3759V85H22.8391V82.3759H19.3391ZM17.2554 81.009C17.8332 81.3814 18.4349 81.7203 19.0576 82.0229L20.5875 78.875C20.0916 78.634 19.6122 78.364 19.1515 78.067L17.2554 81.009ZM13.1961 83.0418L16.8198 80.9497L15.0698 77.9186L11.4461 80.0107L13.1961 83.0418ZM4.57354 75.6071L8.07354 81.6692L11.1046 79.9192L7.60463 73.8571L4.57354 75.6071ZM9.25398 68.5747L5.94614 70.4845L7.69614 73.5155L11.004 71.6058L9.25398 68.5747ZM9.33907 66.5C9.33907 67.0538 9.36522 67.6021 9.41646 68.1435L12.9009 67.8137C12.86 67.3818 12.8391 66.9436 12.8391 66.5H9.33907ZM9.37123 65.4388C9.34988 65.79 9.33907 66.1439 9.33907 66.5H12.8391C12.8391 66.2147 12.8477 65.9317 12.8648 65.6512L9.37123 65.4388ZM10.9557 61.9949L7.6517 60.0874L5.9017 63.1185L9.20567 65.026L10.9557 61.9949ZM7.56019 59.7459L11.0602 53.6837L8.02911 51.9337L4.52911 57.9959L7.56019 59.7459ZM11.4017 53.5922L14.5673 55.4199L16.3173 52.3888L13.1517 50.5611L11.4017 53.5922ZM19.0576 50.9771C18.2571 51.3661 17.4914 51.8151 16.7664 52.3181L18.7615 55.1938C19.3398 54.7926 19.95 54.4348 20.5875 54.125L19.0576 50.9771ZM19.3391 47V50.6241H22.8391V47H19.3391ZM20.5875 54.125C21.8558 53.5086 22.8391 52.2108 22.8391 50.6241H19.3391C19.3391 50.6989 19.2836 50.8672 19.0576 50.9771L20.5875 54.125ZM7.6517 60.0874C7.53213 60.0184 7.49116 59.8655 7.56019 59.7459L4.52911 57.9959C3.49357 59.7895 4.1081 62.0829 5.9017 63.1185L7.6517 60.0874ZM12.8648 65.6512C12.9495 64.257 12.3141 62.7793 10.9557 61.9949L9.20567 65.026C9.27019 65.0633 9.38617 65.193 9.37123 65.4388L12.8648 65.6512ZM11.004 71.6058C12.4086 70.7948 13.0366 69.2482 12.9009 67.8137L9.41646 68.1435C9.4407 68.3996 9.32005 68.5365 9.25398 68.5747L11.004 71.6058ZM7.60463 73.8571C7.53559 73.7375 7.57656 73.5846 7.69614 73.5155L5.94614 70.4845C4.15254 71.52 3.53801 73.8135 4.57354 75.6071L7.60463 73.8571ZM11.4461 80.0107C11.3266 80.0798 11.1737 80.0388 11.1046 79.9192L8.07354 81.6692C9.10907 83.4628 11.4025 84.0774 13.1961 83.0418L11.4461 80.0107ZM19.1515 78.067C17.9906 77.3189 16.4127 77.1433 15.0698 77.9186L16.8198 80.9497C16.8836 80.9129 17.051 80.8772 17.2554 81.009L19.1515 78.067ZM22.8391 82.3759C22.8391 80.7892 21.8558 79.4914 20.5875 78.875L19.0576 82.0229C19.2836 82.1328 19.3391 82.3011 19.3391 82.3759H22.8391ZM23.0891 85.25C22.951 85.25 22.8391 85.1381 22.8391 85H19.3391C19.3391 87.0711 21.018 88.75 23.0891 88.75V85.25ZM30.3391 85C30.3391 85.1381 30.2271 85.25 30.0891 85.25V88.75C32.1601 88.75 33.8391 87.0711 33.8391 85H30.3391ZM32.5907 78.875C31.3223 79.4914 30.3391 80.7892 30.3391 82.3759H33.8391C33.8391 82.3011 33.8945 82.1328 34.1205 82.0229L32.5907 78.875ZM42.5462 79.8426C42.4771 79.9621 42.3242 80.0031 42.2047 79.9341L40.4547 82.9652C42.2483 84.0007 44.5417 83.3862 45.5773 81.5926L42.5462 79.8426ZM45.9547 73.4389C46.0742 73.5079 46.1152 73.6608 46.0462 73.7804L49.0773 75.5304C50.1128 73.7368 49.4983 71.4433 47.7047 70.4078L45.9547 73.4389ZM40.2992 67.5564C40.1921 68.9687 40.8245 70.477 42.2034 71.2731L43.9534 68.242C43.8882 68.2044 43.7702 68.0715 43.7892 67.821L40.2992 67.5564ZM42.2308 62.1351C40.883 62.9132 40.2462 64.3751 40.3195 65.7597L43.8146 65.5747C43.8017 65.3312 43.9167 65.2032 43.9808 65.1661L42.2308 62.1351ZM46.0017 59.6692C46.0708 59.7888 46.0298 59.9417 45.9102 60.0107L47.6602 63.0418C49.4538 62.0063 50.0684 59.7128 49.0328 57.9192L46.0017 59.6692ZM42.1602 53.5155C42.2798 53.4465 42.4327 53.4875 42.5017 53.6071L45.5328 51.8571C44.4973 50.0635 42.2038 49.4489 40.4102 50.4845L42.1602 53.5155ZM34.5043 55.2552C35.6778 56.0829 37.3248 56.3073 38.7239 55.4995L36.9739 52.4684C36.9081 52.5064 36.7305 52.5423 36.5217 52.3951L34.5043 55.2552ZM30.3391 50.6241C30.3391 52.2108 31.3223 53.5086 32.5907 54.125L34.1205 50.9771C33.8945 50.8672 33.8391 50.6989 33.8391 50.6241H30.3391ZM14.5673 55.4199C15.9559 56.2216 17.5901 56.0065 18.7615 55.1938L16.7664 52.3181C16.5584 52.4624 16.3828 52.4266 16.3173 52.3888L14.5673 55.4199ZM23.0891 43.25C21.018 43.25 19.3391 44.9289 19.3391 47H22.8391C22.8391 46.8619 22.951 46.75 23.0891 46.75V43.25ZM38.3902 77.7318C37.0218 76.9418 35.4126 77.1391 34.2454 77.9231L36.1971 80.8284C36.4035 80.6898 36.5755 80.7255 36.6402 80.7629L38.3902 77.7318ZM11.0602 53.6837C11.1292 53.5641 11.2821 53.5232 11.4017 53.5922L13.1517 50.5611C11.3581 49.5256 9.06464 50.1401 8.02911 51.9337L11.0602 53.6837ZM30.0891 46.75C30.2271 46.75 30.3391 46.8619 30.3391 47H33.8391C33.8391 44.9289 32.1601 43.25 30.0891 43.25V46.75Z" fill="#083A5E"/>
<path d="M25.4168 30.6906L25.4167 30.6906C24.9995 31.108 24.4535 31.3165 23.9058 31.3165C23.3582 31.3165 22.8122 31.108 22.3949 30.6907L17.1215 25.4173C16.287 24.5828 16.287 23.23 17.1215 22.3956C17.9559 21.5611 19.3089 21.5611 20.1432 22.3955L20.1432 22.3956L23.5523 25.8045L23.9059 26.158L24.2594 25.8045L32.9419 17.1219C33.7764 16.2875 35.1294 16.2875 35.9636 17.1219L35.9637 17.1219C36.7981 17.9564 36.7981 19.3092 35.9637 20.1437L25.4168 30.6906Z" fill="#083A5E" stroke="#EBB11A"/>
<path d="M32.9419 59.3096L32.942 59.3095C33.7763 58.475 35.1292 58.475 35.9635 59.3094L35.9635 59.3094C36.798 60.1439 36.798 61.4967 35.9635 62.3312L25.4166 72.878L25.4165 72.8781C24.9994 73.2955 24.4535 73.504 23.9059 73.504C23.3582 73.504 22.8122 73.2955 22.3949 72.8782L17.1215 67.6048C16.287 66.7703 16.287 65.4175 17.1215 64.583C17.9559 63.7486 19.3089 63.7486 20.1432 64.583L20.1432 64.583L23.5523 67.992L23.9059 68.3455L24.2594 67.992L32.9419 59.3096Z" fill="#083A5E" stroke="#EBB11A"/>
<path d="M69.8565 38.2158L69.8565 38.2158C70.6908 37.3812 72.0437 37.3812 72.878 38.2156L72.878 38.2157C73.7125 39.0501 73.7125 40.4029 72.878 41.2374L62.3312 51.7843L62.331 51.7844C61.914 52.2018 61.3681 52.4102 60.8204 52.4102C60.2727 52.4102 59.7267 52.2018 59.3094 51.7845L54.036 46.511C53.2015 45.6766 53.2015 44.3238 54.036 43.4893C54.8705 42.6548 56.2234 42.6548 57.0577 43.4893L57.0577 43.4893L60.4668 46.8982L60.8204 47.2518L61.1739 46.8982L69.8565 38.2158Z" fill="#083A5E" stroke="#EBB11A"/>
</svg>
