<svg width="142" height="142" viewBox="0 0 142 142" fill="none" xmlns="http://www.w3.org/2000/svg">
<circle cx="71" cy="71" r="71" fill="white"/>
<path fill-rule="evenodd" clip-rule="evenodd" d="M54 31C51.2386 31 49 33.2386 49 36V107H42C39.2386 107 37 109.239 37 112C37 114.761 39.2386 117 42 117H109C111.761 117 114 114.761 114 112C114 109.239 111.761 107 109 107H102V36C102 33.2386 99.7614 31 97 31H54Z" fill="#EBB11A"/>
<path fill-rule="evenodd" clip-rule="evenodd" d="M105.234 101.59H99.0426V51.6164C99.0426 50.6407 98.2509 49.849 97.2752 49.849C96.2995 49.849 95.5084 50.6407 95.5084 51.6164V101.59H88.0405V94.2159C88.0405 93.2402 87.2488 92.4485 86.2731 92.4485H56.06C55.0842 92.4485 54.2932 93.2402 54.2932 94.2159V101.59H46.8246V98.0563C46.8246 97.0806 46.0336 96.2889 45.0578 96.2889C44.0821 96.2889 43.2904 97.0806 43.2904 98.0563V101.59H37.0989C33.402 101.59 30.3945 104.599 30.3945 108.296C30.3945 111.992 33.402 115 37.0989 115H105.234C108.931 115 111.938 111.992 111.938 108.296C111.939 104.599 108.931 101.59 105.234 101.59ZM57.8274 95.9827H84.5063V101.59H57.8274V95.9827ZM105.234 111.466H37.0989C35.3507 111.466 33.9287 110.044 33.9287 108.296C33.9287 106.547 35.3507 105.125 37.0989 105.125H105.234C106.982 105.125 108.405 106.547 108.405 108.296C108.405 110.044 106.982 111.466 105.234 111.466Z" fill="#083A5E"/>
<path fill-rule="evenodd" clip-rule="evenodd" d="M45.058 85.6864C46.0337 85.6864 46.8247 84.8954 46.8247 83.9197V32.1782C46.8247 30.1691 48.4596 28.5342 50.4687 28.5342H91.8645C93.8736 28.5342 95.5085 30.1691 95.5085 32.1782V37.4798C95.5085 38.4555 96.2996 39.2465 97.2753 39.2465C98.251 39.2465 99.0427 38.4555 99.0427 37.4798V32.1782C99.0427 28.2204 95.8223 25 91.8645 25H50.4687C46.5109 25 43.2905 28.2204 43.2905 32.1782V83.9197C43.2905 84.8954 44.0822 85.6864 45.058 85.6864Z" fill="#083A5E"/>
<path fill-rule="evenodd" clip-rule="evenodd" d="M86.2732 72.8901H75.8568C74.8811 72.8901 74.0894 73.6812 74.0894 74.6569V85.0733C74.0894 86.049 74.8811 86.8407 75.8568 86.8407H86.2732C87.2489 86.8407 88.0406 86.049 88.0406 85.0733V74.6569C88.0406 73.6812 87.2489 72.8901 86.2732 72.8901ZM84.5064 83.3065H77.6235V76.4243H84.5064V83.3065Z" fill="#083A5E"/>
<path fill-rule="evenodd" clip-rule="evenodd" d="M88.0406 55.5818C88.0406 54.6061 87.2489 53.8151 86.2732 53.8151H75.8568C74.8811 53.8151 74.0894 54.6061 74.0894 55.5818V65.9982C74.0894 66.9739 74.8811 67.7656 75.8568 67.7656H86.2732C87.2489 67.7656 88.0406 66.9739 88.0406 65.9982V55.5818ZM84.5064 64.2315H77.6235V57.3492H84.5064V64.2315Z" fill="#083A5E"/>
<path fill-rule="evenodd" clip-rule="evenodd" d="M66.4766 72.8901H56.0602C55.0845 72.8901 54.2935 73.6812 54.2935 74.6569V85.0733C54.2935 86.049 55.0845 86.8407 56.0602 86.8407H66.4766C67.453 86.8407 68.244 86.049 68.244 85.0733V74.6569C68.244 73.6812 67.453 72.8901 66.4766 72.8901ZM64.7099 83.3065H57.8276V76.4243H64.7099V83.3065Z" fill="#083A5E"/>
<path fill-rule="evenodd" clip-rule="evenodd" d="M68.244 36.5067C68.244 35.531 67.453 34.74 66.4766 34.74H56.0602C55.0845 34.74 54.2935 35.531 54.2935 36.5067V46.9231C54.2935 47.8989 55.0845 48.6906 56.0602 48.6906H66.4766C67.453 48.6906 68.244 47.8989 68.244 46.9231V36.5067ZM64.7099 45.1564H57.8276V38.2742H64.7099V45.1564Z" fill="#083A5E"/>
<path fill-rule="evenodd" clip-rule="evenodd" d="M88.0406 36.5067C88.0406 35.531 87.2489 34.74 86.2732 34.74H75.8568C74.8811 34.74 74.0894 35.531 74.0894 36.5067V46.9231C74.0894 47.8989 74.8811 48.6906 75.8568 48.6906H86.2732C87.2489 48.6906 88.0406 47.8989 88.0406 46.9231V36.5067ZM84.5064 45.1564H77.6235V38.2742H84.5064V45.1564Z" fill="#083A5E"/>
<path fill-rule="evenodd" clip-rule="evenodd" d="M68.244 55.5818C68.244 54.6061 67.453 53.8151 66.4766 53.8151H56.0602C55.0845 53.8151 54.2935 54.6061 54.2935 55.5818V65.9982C54.2935 66.9739 55.0845 67.7656 56.0602 67.7656H66.4766C67.453 67.7656 68.244 66.9739 68.244 65.9982V55.5818ZM64.7099 64.2315H57.8276V57.3492H64.7099V64.2315Z" fill="#083A5E"/>
<path fill-rule="evenodd" clip-rule="evenodd" d="M45.0578 89.2206C44.0848 89.2206 43.291 90.0143 43.291 90.988C43.291 91.961 44.0848 92.7547 45.0578 92.7547C46.0307 92.7547 46.8252 91.961 46.8252 90.988C46.8252 90.0143 46.0307 89.2206 45.0578 89.2206Z" fill="#083A5E"/>
<path fill-rule="evenodd" clip-rule="evenodd" d="M97.275 42.7808C96.3021 42.7808 95.5083 43.5745 95.5083 44.5482C95.5083 45.5212 96.3021 46.3149 97.275 46.3149C98.2487 46.3149 99.0425 45.5212 99.0425 44.5482C99.0425 43.5745 98.2487 42.7808 97.275 42.7808Z" fill="#083A5E"/>
</svg>
