<svg width="142" height="142" viewBox="0 0 142 142" fill="none" xmlns="http://www.w3.org/2000/svg">
<circle cx="71" cy="71" r="71" fill="white"/>
<path d="M110 115H32.4999L32.5001 100.5C29.5 97.5 31.8332 95.8333 33.4999 95H45.4999L46.9999 51.5H54.9999L55.9999 89.5H61.9999L63.9999 67H68.9999L70.9999 89.5H75.9999L77.9999 67H82.9999L84.9999 89.5H90.4999L91.9999 67H97.4999L98.9999 89.5H110C112.4 91.1 111 93.8333 110 95V115Z" fill="#EBB11A"/>
<path d="M54 41.5C50.8 40.3 49.6667 42.6667 49.5 44C51.1 49.9999 56.1667 48.8334 58.5 47.5001C58.9 48.3001 61.6667 46.8334 63 46.0001C66.2 49.6002 71.3333 48.5001 73.5 47.5001C76.7 53.1001 83.8333 51.8334 87 50.5001C93.5 64.5001 119 58.5 115 39.0001C111.977 24.2653 95.6667 27.1667 89.5 31.5001C81.9 25.9001 75.6667 29.8334 73.5 32.5C65.1 29.3 62 34.8334 61.5 38C55.9 36.4 54.1667 39.6667 54 41.5Z" fill="#EBB11A"/>
<g clip-path="url(#clip0)">
<path d="M112.682 111.363H108.364V93.2424C109.227 92.4837 109.773 91.3729 109.773 90.1363C109.773 87.8554 107.917 85.9998 105.636 85.9998H97.0113L95.6794 64.6906C95.636 63.9957 95.0597 63.4545 94.3636 63.4545H88.7272C88.0311 63.4545 87.4549 63.9957 87.4115 64.6906L86.0796 85.9998H82.9203L81.5884 64.6906C81.545 63.9957 80.9688 63.4545 80.2727 63.4545H74.6364C73.9403 63.4545 73.3641 63.9957 73.3207 64.6906L71.9888 85.9998H68.8295L67.4976 64.6906C67.4542 63.9957 66.878 63.4545 66.1819 63.4545H60.5456C59.8495 63.4545 59.2733 63.9957 59.2299 64.6906L57.898 85.9998H54.2259L53.4093 49.2436C53.3934 48.5271 52.8079 47.9546 52.0912 47.9546H43.6367C42.92 47.9546 42.3345 48.5271 42.3187 49.2436L41.3767 91.6362H30.9546C28.6737 91.6362 26.8181 93.492 26.8181 95.7727C26.8181 97.0094 27.3643 98.1201 28.2272 98.8788V111.363H25.3184C24.5903 111.363 24 111.954 24 112.682C24 113.41 24.5903 114 25.3184 114H112.682C113.41 114 114 113.41 114 112.682C114 111.954 113.41 111.363 112.682 111.363ZM41.251 97.2727H36.5916C35.8635 97.2727 35.2732 97.8629 35.2732 98.591C35.2732 99.3191 35.8635 99.9094 36.5916 99.9094H41.1925L40.9379 111.363H30.8639V99.9069C30.8941 99.9076 30.9242 99.9092 30.9546 99.9092C31.6827 99.9092 32.273 99.3189 32.273 98.5909C32.273 97.8628 31.6827 97.2725 30.9546 97.2725C30.1276 97.2725 29.4548 96.5996 29.4548 95.7727C29.4548 94.9457 30.1277 94.273 30.9546 94.273H41.3176L41.251 97.2727ZM89.9656 66.0912H93.1249L94.3693 85.9998H88.7214L89.9656 66.0912ZM75.8748 66.0912H79.0341L80.2785 85.9998H74.6306L75.8748 66.0912ZM61.784 66.0912H64.9433L66.1875 85.9998H60.5396L61.784 66.0912ZM46.5455 111.363H43.5755L44.9257 50.5911H50.8015L51.5885 85.9998H49.2729C46.992 85.9998 45.1363 87.8555 45.1363 90.1363C45.1363 91.3729 45.6824 92.4837 46.5455 93.2424V111.363ZM105.636 91.6361H102.818C102.09 91.6361 101.5 92.2263 101.5 92.9544C101.5 93.6825 102.09 94.2728 102.818 94.2728H105.636C105.667 94.2728 105.697 94.271 105.727 94.2705V111.363H49.1821V94.2705C49.2123 94.2712 49.2424 94.2728 49.2728 94.2728H97.1828C97.9109 94.2728 98.5012 93.6825 98.5012 92.9544C98.5012 92.2263 97.9109 91.6361 97.1828 91.6361H49.2728C48.4457 91.6361 47.7728 90.9632 47.7728 90.1363C47.7728 89.3094 48.4457 88.6365 49.2728 88.6365H105.636C106.463 88.6365 107.136 89.3093 107.136 90.1363C107.136 90.9634 106.463 91.6361 105.636 91.6361Z" fill="#083A5E"/>
<path d="M97.1814 24C93.2098 24 89.4235 25.386 86.3967 27.9259C84.2237 26.2954 81.5901 25.4091 78.8632 25.4091C75.5529 25.4091 72.3927 26.716 70.0438 29.0266C68.8261 28.5016 67.509 28.2272 66.1815 28.2272C62.2619 28.2272 58.7679 30.574 57.2344 34.0863C56.7053 33.9381 56.1636 33.8634 55.6134 33.8634C52.89 33.8634 50.548 35.6344 49.7115 38.1152C49.5658 38.0991 49.4192 38.0908 49.2724 38.0908C46.9915 38.0908 45.1357 39.9465 45.1357 42.2273C45.1359 42.9555 45.7262 43.5458 46.4543 43.5458C47.1824 43.5458 47.7726 42.9555 47.7726 42.2275C47.7726 41.4004 48.4455 40.7277 49.2726 40.7277C49.5341 40.7277 49.7906 40.8017 50.0346 40.9478C50.4297 41.1842 50.9195 41.1972 51.3268 40.9826C51.7339 40.7678 51.9996 40.3561 52.0274 39.8964C52.1429 37.9922 53.7181 36.5005 55.6132 36.5005C56.2124 36.5005 56.8039 36.6624 57.371 36.9818C57.7262 37.182 58.1546 37.2063 58.5306 37.0475C58.9066 36.8888 59.1877 36.565 59.2923 36.1706C60.12 33.0462 62.9529 30.8641 66.1813 30.8641C67.4048 30.8641 68.6168 31.184 69.6862 31.789C70.2329 32.0984 70.9225 31.9791 71.3331 31.5034C73.2308 29.3061 75.9755 28.046 78.8631 28.046C81.3319 28.046 83.7057 28.9676 85.5468 30.6408C86.0606 31.1077 86.8484 31.0963 87.3484 30.6145C90.0097 28.0493 93.5018 26.6367 97.1814 26.6367C105.001 26.6367 111.363 32.9986 111.363 40.8182C111.363 48.6378 105.001 54.9997 97.1814 54.9997C91.9897 54.9997 87.2171 52.1651 84.7261 47.602C84.3938 46.9934 83.6469 46.7463 83.0173 47.0363C81.6951 47.6454 80.2974 47.9542 78.8632 47.9542C75.9757 47.9542 73.231 46.6941 71.3333 44.4968C70.9227 44.0213 70.2333 43.9018 69.6864 44.2111C68.6169 44.8162 67.4049 45.1361 66.1815 45.1361C63.9536 45.1361 61.8921 44.1161 60.5257 42.3375C60.2775 42.0146 59.8942 41.8244 59.4869 41.8223C59.4846 41.8223 59.4825 41.8223 59.4804 41.8223C59.0755 41.8223 58.6929 42.0084 58.4429 42.3271C57.7454 43.2168 56.7141 43.7269 55.6134 43.7269C54.8853 43.7269 54.295 44.3171 54.295 45.0452C54.295 45.7733 54.8853 46.3636 55.6134 46.3636C57.0106 46.3636 58.3395 45.8967 59.4224 45.0498C61.2313 46.795 63.6258 47.7727 66.1815 47.7727C67.509 47.7727 68.8261 47.4983 70.0438 46.9734C72.3927 49.284 75.5531 50.591 78.8632 50.591C80.2841 50.591 81.6752 50.3524 83.0129 49.8808C86.0933 54.6928 91.4195 57.6364 97.1814 57.6364C106.455 57.6364 114 50.0917 114 40.8182C114 31.5447 106.455 24 97.1814 24Z" fill="#083A5E"/>
<path d="M57.7271 97.2725C56.999 97.2725 56.4087 97.8627 56.4087 98.5908V101.409C56.4087 102.137 56.999 102.727 57.7271 102.727C58.4551 102.727 59.0454 102.137 59.0454 101.409V98.5908C59.0454 97.8627 58.4551 97.2725 57.7271 97.2725Z" fill="#083A5E"/>
<path d="M63.3638 97.2725C62.6357 97.2725 62.0454 97.8627 62.0454 98.5908V101.409C62.0454 102.137 62.6357 102.727 63.3638 102.727C64.0919 102.727 64.6821 102.137 64.6821 101.409V98.5908C64.6821 97.8627 64.0919 97.2725 63.3638 97.2725Z" fill="#083A5E"/>
<path d="M69 97.2725C68.2719 97.2725 67.6816 97.8627 67.6816 98.5908V101.409C67.6816 102.137 68.2719 102.727 69 102.727C69.7281 102.727 70.3184 102.137 70.3184 101.409V98.5908C70.3184 97.8627 69.7281 97.2725 69 97.2725Z" fill="#083A5E"/>
<path d="M74.6362 97.2725C73.9081 97.2725 73.3179 97.8627 73.3179 98.5908V101.409C73.3179 102.137 73.9081 102.727 74.6362 102.727C75.3643 102.727 75.9546 102.137 75.9546 101.409V98.5908C75.9546 97.8627 75.3645 97.2725 74.6362 97.2725Z" fill="#083A5E"/>
<path d="M80.2729 97.2725C79.5449 97.2725 78.9546 97.8627 78.9546 98.5908V101.409C78.9546 102.137 79.5449 102.727 80.2729 102.727C81.001 102.727 81.5913 102.137 81.5913 101.409V98.5908C81.5913 97.8627 81.001 97.2725 80.2729 97.2725Z" fill="#083A5E"/>
<path d="M85.9092 97.2725C85.1811 97.2725 84.5908 97.8627 84.5908 98.5908V101.409C84.5908 102.137 85.1811 102.727 85.9092 102.727C86.6373 102.727 87.2275 102.137 87.2275 101.409V98.5908C87.2275 97.8627 86.6373 97.2725 85.9092 97.2725Z" fill="#083A5E"/>
<path d="M91.5454 97.2725C90.8173 97.2725 90.2271 97.8627 90.2271 98.5908V101.409C90.2271 102.137 90.8173 102.727 91.5454 102.727C92.2735 102.727 92.8638 102.137 92.8638 101.409V98.5908C92.8638 97.8627 92.2735 97.2725 91.5454 97.2725Z" fill="#083A5E"/>
<path d="M97.1816 97.2725C96.4536 97.2725 95.8633 97.8627 95.8633 98.5908V101.409C95.8633 102.137 96.4536 102.727 97.1816 102.727C97.9097 102.727 98.5 102.137 98.5 101.409V98.5908C98.5 97.8627 97.9097 97.2725 97.1816 97.2725Z" fill="#083A5E"/>
</g>
<defs>
<clipPath id="clip0">
<rect width="90" height="90" fill="white" transform="translate(24 24)"/>
</clipPath>
</defs>
</svg>
