<svg width="142" height="142" viewBox="0 0 142 142" fill="none" xmlns="http://www.w3.org/2000/svg">
<circle cx="71" cy="71" r="71" fill="white"/>
<path d="M41 70V112.5H108.5V70H118L75 27L32 70H41Z" fill="#EBB11A"/>
<g clip-path="url(#clip0)">
<path d="M112.242 108.484H104.508V94.5978C104.508 93.6269 103.721 92.84 102.75 92.84C101.779 92.84 100.992 93.6269 100.992 94.5978V108.484H79.8984V75.0861C79.8984 74.1153 79.1113 73.3283 78.1406 73.3283H59.8595C58.8888 73.3283 58.1017 74.1153 58.1017 75.0861V108.484H37.008V68.7578H37.6844C38.1506 68.7578 38.5976 68.5726 38.9273 68.243L69 38.1703L99.0728 68.243C99.4025 68.5726 99.8495 68.7578 100.316 68.7578H100.992V81.9414C100.992 82.9122 101.779 83.6992 102.75 83.6992C103.721 83.6992 104.508 82.9122 104.508 81.9414V68.7578H112.242C112.953 68.7578 113.594 68.3295 113.866 67.6727C114.138 67.016 113.988 66.2598 113.485 65.7571L70.243 22.5151C69.5564 21.8286 68.4437 21.8286 67.7569 22.5151L51.2336 39.0384C50.5471 39.7249 50.5471 40.8379 51.2336 41.5243C51.9202 42.2109 53.0332 42.2109 53.7196 41.5243L69 26.2439L107.998 65.2422H101.044L70.243 34.4414C69.5564 33.755 68.4437 33.755 67.7569 34.4414L36.9561 65.2422H30.0017L43.8759 51.3682C44.5623 50.6818 44.5623 49.5688 43.8759 48.8822C43.1895 48.1959 42.0764 48.1957 41.3898 48.8822L24.5149 65.7571C24.0124 66.2598 23.8617 67.0159 24.1338 67.6727C24.4059 68.3296 25.047 68.7578 25.758 68.7578H33.4924V108.484H25.758C24.7874 108.484 24.0002 109.271 24.0002 110.242C24.0002 111.213 24.7874 112 25.758 112H35.2502H59.8595H78.1406H102.75H112.242C113.213 112 114 111.213 114 110.242C114 109.271 113.213 108.484 112.242 108.484ZM76.3828 108.484H61.6173V76.8439H76.3828V108.484Z" fill="#083A5E"/>
<path d="M95.3671 73.3284H85.5234C84.5528 73.3284 83.7656 74.1153 83.7656 75.0862V92.6642C83.7656 93.6351 84.5528 94.422 85.5234 94.422H95.3671C96.3378 94.422 97.125 93.6351 97.125 92.6642V75.0862C97.125 74.1153 96.3378 73.3284 95.3671 73.3284ZM93.6093 90.9064H87.2812V76.844H93.6093V90.9064Z" fill="#083A5E"/>
<path d="M52.4768 73.3284H42.6331C41.6624 73.3284 40.8752 74.1153 40.8752 75.0862V92.6642C40.8752 93.6351 41.6624 94.422 42.6331 94.422H52.4768C53.4474 94.422 54.2346 93.6351 54.2346 92.6642V75.0862C54.2346 74.1153 53.4474 73.3284 52.4768 73.3284ZM50.719 90.9064H44.3909V76.844H50.719V90.9064Z" fill="#083A5E"/>
<path d="M69 50.8846C64.5415 50.8846 60.9141 54.5121 60.9141 58.9706C60.9141 63.4291 64.5415 67.0565 69 67.0565C73.4585 67.0565 77.0859 63.4291 77.0859 58.9706C77.0859 54.5121 73.4585 50.8846 69 50.8846ZM69 63.5409C66.4798 63.5409 64.4297 61.4905 64.4297 58.9706C64.4297 56.4506 66.4798 54.4003 69 54.4003C71.5201 54.4003 73.5703 56.4506 73.5703 58.9706C73.5703 61.4905 71.5201 63.5409 69 63.5409Z" fill="#083A5E"/>
<path d="M66.9027 91.4214C66.576 91.0945 66.1223 90.9064 65.6601 90.9064C65.1978 90.9064 64.7443 91.0945 64.4174 91.4214C64.0904 91.7484 63.9023 92.2019 63.9023 92.6642C63.9023 93.1265 64.0903 93.58 64.4174 93.9069C64.7445 94.2339 65.1978 94.422 65.6601 94.422C66.1225 94.422 66.576 94.2339 66.9027 93.9069C67.2297 93.58 67.418 93.1265 67.418 92.6642C67.418 92.2019 67.2299 91.7484 66.9027 91.4214Z" fill="#083A5E"/>
<path d="M48.6215 44.1364C48.2947 43.8094 47.8412 43.6213 47.3789 43.6213C46.9166 43.6213 46.4631 43.8094 46.1361 44.1364C45.8092 44.4633 45.6211 44.9168 45.6211 45.3791C45.6211 45.8414 45.809 46.295 46.1361 46.6219C46.4633 46.9489 46.9166 47.1369 47.3789 47.1369C47.8412 47.1369 48.2947 46.9489 48.6215 46.6219C48.9484 46.295 49.1367 45.8414 49.1367 45.3791C49.1367 44.9168 48.9486 44.4633 48.6215 44.1364Z" fill="#083A5E"/>
<path d="M103.993 86.5573C103.666 86.2305 103.212 86.0422 102.75 86.0422C102.288 86.0422 101.834 86.2303 101.507 86.5573C101.18 86.886 100.992 87.3377 100.992 87.8C100.992 88.2623 101.18 88.7159 101.507 89.0446C101.834 89.3715 102.288 89.5578 102.75 89.5578C103.212 89.5578 103.666 89.3715 103.993 89.0446C104.32 88.7159 104.508 88.2641 104.508 87.8C104.508 87.3377 104.32 86.8842 103.993 86.5573Z" fill="#083A5E"/>
</g>
<defs>
<clipPath id="clip0">
<rect width="90" height="90" fill="white" transform="translate(24 22)"/>
</clipPath>
</defs>
</svg>
