<svg width="142" height="142" viewBox="0 0 142 142" fill="none" xmlns="http://www.w3.org/2000/svg">
<circle cx="71" cy="71" r="71" fill="white"/>
<circle cx="74" cy="74" r="43" fill="#EBB11A"/>
<g clip-path="url(#clip0)">
<path d="M44.6894 96.5577C43.2827 95.1509 41.4123 94.3763 39.4232 94.3763C38.2481 94.3763 37.1154 94.6487 36.0942 95.1599C26.0601 80.9437 26.0253 61.4627 36.1792 47.2121C36.7424 46.4214 36.5581 45.3239 35.7675 44.7605C34.9768 44.1971 33.8792 44.3813 33.3158 45.172C27.7149 53.0328 24.8416 62.3154 25.0065 72.0163C25.1634 81.2482 28.0621 90.0056 33.4025 97.4399C31.2805 100.351 31.5317 104.465 34.157 107.09C35.6089 108.542 37.516 109.268 39.4232 109.268C41.3304 109.268 43.2375 108.542 44.6894 107.09C47.5932 104.186 47.5932 99.4616 44.6894 96.5577ZM42.2034 104.604C40.67 106.137 38.1759 106.137 36.6429 104.604C35.1097 103.071 35.1097 100.576 36.6429 99.0434C37.3855 98.3008 38.3729 97.8917 39.423 97.8917C40.4731 97.8917 41.4607 98.3008 42.2032 99.0434C43.7365 100.577 43.7365 103.071 42.2034 104.604Z" fill="#083A5E"/>
<path d="M96.7122 105.303C96.1442 104.516 95.0456 104.339 94.2583 104.908C89.233 108.539 83.5839 110.944 77.4678 112.058C76.0506 112.316 74.6053 111.936 73.5027 111.016C72.4079 110.102 71.7802 108.76 71.7802 107.334V94.4499H71.9336C73.969 94.4499 75.6251 92.794 75.6251 90.7585V87.7908C81.5793 85.5179 85.8204 79.7477 85.8204 73.0047V64.6823C88.6533 63.9085 90.7423 61.3138 90.7423 58.2391C90.7423 54.854 88.2105 52.0508 84.9415 51.6189V40.6609C84.9415 37.7531 82.5758 35.3875 79.668 35.3875C76.7602 35.3875 74.3946 37.7531 74.3946 40.6609V51.5594H65.6055V40.6609C65.6055 37.7531 63.2398 35.3875 60.3321 35.3875C57.4243 35.3875 55.0586 37.7531 55.0586 40.6609V51.6189C51.7896 52.0508 49.2578 54.8539 49.2578 58.2391C49.2578 61.3138 51.3468 63.9085 54.1797 64.6823V73.0047C54.1797 79.7477 58.4208 85.5179 64.375 87.7908V90.7587C64.375 92.7942 66.0311 94.4501 68.0664 94.4501H68.2645V107.335C68.2645 109.806 69.3528 112.132 71.2502 113.715C72.7646 114.979 74.6517 115.653 76.5903 115.653C77.0911 115.653 77.5952 115.608 78.0972 115.516C84.7333 114.308 90.8634 111.698 96.3168 107.757C97.1038 107.189 97.2806 106.09 96.7122 105.303ZM77.9104 40.6609C77.9104 39.6916 78.6989 38.9031 79.6682 38.9031C80.6375 38.9031 81.426 39.6916 81.426 40.6609V51.5594H77.9104V40.6609ZM58.5744 40.6609C58.5744 39.6916 59.363 38.9031 60.3322 38.9031C61.3015 38.9031 62.09 39.6916 62.09 40.6609V51.5594H58.5744V40.6609ZM52.7736 58.2391C52.7736 56.4944 54.1931 55.075 55.9377 55.075H84.0627C85.8074 55.075 87.2268 56.4944 87.2268 58.2391C87.2268 59.9837 85.8074 61.4031 84.0627 61.4031H55.9377C54.1931 61.4031 52.7736 59.9837 52.7736 58.2391ZM57.6955 73.0047V64.9188H82.3049V73.0047C82.3049 79.7895 76.785 85.3094 70.0002 85.3094C63.2154 85.3094 57.6955 79.7895 57.6955 73.0047ZM70.0668 90.9344C70.0521 90.9341 70.0375 90.9321 70.0227 90.9321C70.0079 90.9321 69.9934 90.9341 69.9786 90.9344H68.067C67.9696 90.9344 67.8908 90.8555 67.8908 90.7587V88.6841C68.5811 88.7765 69.2851 88.8251 70.0002 88.8251C70.7153 88.8251 71.4193 88.7765 72.1096 88.6841V90.7587C72.1096 90.8555 72.0308 90.9344 71.9338 90.9344H70.0668Z" fill="#083A5E"/>
<path d="M101.776 100.539C101.08 99.8883 99.9943 99.9134 99.3281 100.587C99.3146 100.601 99.3011 100.615 99.2882 100.628C98.6257 101.338 98.6642 102.45 99.3738 103.113C99.7127 103.429 100.143 103.585 100.573 103.585C101.027 103.585 101.48 103.41 101.822 103.064C101.836 103.051 101.849 103.037 101.862 103.023C102.525 102.313 102.486 101.201 101.776 100.539Z" fill="#083A5E"/>
<path d="M114.881 67.9612C114.098 57.2002 109.459 47.0667 101.821 39.4278C94.3127 31.9193 84.2833 27.3233 73.5801 26.4867C63.0074 25.66 52.4849 28.5291 43.9476 34.5648C43.1548 35.1252 42.9666 36.2222 43.5269 37.0148C44.0872 37.8074 45.1844 37.996 45.977 37.4355C62.3023 25.8942 85.2411 27.8192 99.3348 41.9137C113.899 56.4791 115.661 79.0978 103.522 95.6958C102.949 96.4794 103.12 97.5791 103.903 98.1524C104.216 98.3812 104.58 98.4914 104.94 98.4914C105.481 98.4914 106.016 98.242 106.36 97.7711C112.63 89.1975 115.656 78.6109 114.881 67.9612Z" fill="#083A5E"/>
<path d="M40.4527 39.6311C39.7632 38.9478 38.6501 38.9524 37.9667 39.6421L37.938 39.6713C37.2546 40.3607 37.2597 41.4738 37.9491 42.1572C38.2919 42.4968 38.7392 42.6665 39.1866 42.6665C39.6389 42.6665 40.0913 42.4928 40.4352 42.1462L40.4638 42.117C41.1473 41.4276 41.1422 40.3145 40.4527 39.6311Z" fill="#083A5E"/>
<path d="M73.9637 72.3538C73.6487 71.8134 73.0704 71.4812 72.4449 71.4812H71.1888L73.5024 68.5586C74.105 67.7975 73.9763 66.6918 73.2152 66.0894C72.4541 65.4867 71.3484 65.6155 70.7458 66.3765L66.1769 72.1479C65.7586 72.6765 65.6793 73.3977 65.9728 74.0045C66.2664 74.6113 66.8811 74.9968 67.5552 74.9968H69.429L67.2764 78.7976C66.798 79.6424 67.095 80.715 67.9395 81.1933C68.2133 81.3483 68.5106 81.422 68.8043 81.422C69.4173 81.4218 70.0123 81.101 70.3357 80.5301L73.9746 74.1052C74.2829 73.561 74.2787 72.8941 73.9637 72.3538Z" fill="#083A5E"/>
</g>
<defs>
<clipPath id="clip0">
<rect width="90" height="90" fill="white" transform="translate(25 26)"/>
</clipPath>
</defs>
</svg>
