<svg width="142" height="142" viewBox="0 0 142 142" fill="none" xmlns="http://www.w3.org/2000/svg">
<circle cx="71" cy="71" r="71" fill="white"/>
<path d="M113.5 115.5H34.5V72.5001C34.5 67.3002 39.5 68.6668 42 70.0001V58L53 62V47.5H95V62L106.5 58V70.0001C111.7 66.8001 113.333 70.3334 113.5 72.5001V115.5Z" fill="#EBB11A"/>
<rect x="53" y="29" width="41" height="11" fill="#EBB11A"/>
<path d="M39.5898 83.0625C39.5898 84.0334 38.8029 84.8203 37.832 84.8203C36.8611 84.8203 36.0742 84.0334 36.0742 83.0625C36.0742 82.0916 36.8611 81.3047 37.832 81.3047C38.8029 81.3047 39.5898 82.0916 39.5898 83.0625Z" fill="#083A5E"/>
<path d="M113.242 110.484H111.484V69C111.484 66.0921 109.119 63.7266 106.211 63.7266H103.926V54.9375C103.926 54.3772 103.659 53.8499 103.206 53.5189C102.754 53.1879 102.171 53.0925 101.636 53.2621L92.8516 56.0512V44.3906C92.8516 43.4197 92.0647 42.6328 91.0938 42.6328H85.8203V39.1172H91.0938C92.0647 39.1172 92.8516 38.3303 92.8516 37.3594V25.7578C92.8516 24.7869 92.0647 24 91.0938 24H48.9062C47.9353 24 47.1484 24.7869 47.1484 25.7578V37.3594C47.1484 38.3303 47.9353 39.1172 48.9062 39.1172H54.1797V42.6328H48.9062C47.9353 42.6328 47.1484 43.4197 47.1484 44.3906V56.0512L38.3642 53.2621C37.8293 53.0925 37.2463 53.1879 36.7938 53.5189C36.3413 53.8499 36.0742 54.3772 36.0742 54.9375V63.7266H33.7891C30.8811 63.7266 28.5156 66.0921 28.5156 69V110.484H26.7578C25.7869 110.484 25 111.271 25 112.242C25 113.213 25.7869 114 26.7578 114H113.242C114.213 114 115 113.213 115 112.242C115 111.271 114.213 110.484 113.242 110.484ZM106.211 67.2422C107.18 67.2422 107.969 68.0305 107.969 69V110.484H103.926V67.2422H106.211ZM100.41 57.3401V110.484H92.8516V59.7392L100.41 57.3401ZM50.6641 27.5156H89.3359V35.6016H50.6641V27.5156ZM57.6953 39.1172H82.3047V42.6328H57.6953V39.1172ZM89.3359 46.1484V110.484H82.3047V93.6094C82.3047 92.6385 81.5178 91.8516 80.5469 91.8516H59.4531C58.4822 91.8516 57.6953 92.6385 57.6953 93.6094V110.484H50.6641C50.6641 107.576 50.6641 48.4748 50.6641 46.1484H89.3359ZM71.7578 95.3672H78.7891V110.484H71.7578V95.3672ZM68.2422 110.484H61.2109V95.3672H68.2422V110.484ZM32.0312 69C32.0312 68.0305 32.8195 67.2422 33.7891 67.2422H36.0742V76.0312C36.0742 77.0022 36.8611 77.7891 37.832 77.7891C38.8029 77.7891 39.5898 77.0022 39.5898 76.0312V57.3401L47.1484 59.7392V110.484H39.5898V90.0938C39.5898 89.1228 38.8029 88.3359 37.832 88.3359C36.8611 88.3359 36.0742 89.1228 36.0742 90.0938V110.484H32.0312V69Z" fill="#083A5E"/>
<path d="M55.9375 60.2109H66.4844C67.4553 60.2109 68.2422 59.424 68.2422 58.4531V51.4219C68.2422 50.451 67.4553 49.6641 66.4844 49.6641H55.9375C54.9666 49.6641 54.1797 50.451 54.1797 51.4219V58.4531C54.1797 59.424 54.9666 60.2109 55.9375 60.2109ZM57.6953 53.1797H64.7266V56.6953H57.6953V53.1797Z" fill="#083A5E"/>
<path d="M73.5156 60.2109H84.0625C85.0334 60.2109 85.8203 59.424 85.8203 58.4531V51.4219C85.8203 50.451 85.0334 49.6641 84.0625 49.6641H73.5156C72.5447 49.6641 71.7578 50.451 71.7578 51.4219V58.4531C71.7578 59.424 72.5447 60.2109 73.5156 60.2109ZM75.2734 53.1797H82.3047V56.6953H75.2734V53.1797Z" fill="#083A5E"/>
<path d="M55.9375 74.2734H66.4844C67.4553 74.2734 68.2422 73.4865 68.2422 72.5156V65.4844C68.2422 64.5135 67.4553 63.7266 66.4844 63.7266H55.9375C54.9666 63.7266 54.1797 64.5135 54.1797 65.4844V72.5156C54.1797 73.4865 54.9666 74.2734 55.9375 74.2734ZM57.6953 67.2422H64.7266V70.7578H57.6953V67.2422Z" fill="#083A5E"/>
<path d="M73.5156 74.2734H84.0625C85.0334 74.2734 85.8203 73.4865 85.8203 72.5156V65.4844C85.8203 64.5135 85.0334 63.7266 84.0625 63.7266H73.5156C72.5447 63.7266 71.7578 64.5135 71.7578 65.4844V72.5156C71.7578 73.4865 72.5447 74.2734 73.5156 74.2734ZM75.2734 67.2422H82.3047V70.7578H75.2734V67.2422Z" fill="#083A5E"/>
<path d="M55.9375 88.3359H66.4844C67.4553 88.3359 68.2422 87.549 68.2422 86.5781V79.5469C68.2422 78.576 67.4553 77.7891 66.4844 77.7891H55.9375C54.9666 77.7891 54.1797 78.576 54.1797 79.5469V86.5781C54.1797 87.549 54.9666 88.3359 55.9375 88.3359ZM57.6953 81.3047H64.7266V84.8203H57.6953V81.3047Z" fill="#083A5E"/>
<path d="M73.5156 88.3359H84.0625C85.0334 88.3359 85.8203 87.549 85.8203 86.5781V79.5469C85.8203 78.576 85.0334 77.7891 84.0625 77.7891H73.5156C72.5447 77.7891 71.7578 78.576 71.7578 79.5469V86.5781C71.7578 87.549 72.5447 88.3359 73.5156 88.3359ZM75.2734 81.3047H82.3047V84.8203H75.2734V81.3047Z" fill="#083A5E"/>
</svg>
