<svg width="59" height="59" viewBox="0 0 59 59" fill="none" xmlns="http://www.w3.org/2000/svg">
<circle cx="29.5" cy="29.5" r="29" fill="white" stroke="#CC9612"/>
<circle cx="31.286" cy="30.5714" r="18.4286" fill="#EBB11A"/>
<g clip-path="url(#clip0)">
<path d="M18.7246 40.2391C18.1217 39.6362 17.3201 39.3042 16.4676 39.3042C15.964 39.3042 15.4785 39.4209 15.0409 39.64C10.7406 33.5474 10.7257 25.1984 15.0773 19.091C15.3187 18.7521 15.2397 18.2817 14.9009 18.0403C14.562 17.7988 14.0916 17.8778 13.8502 18.2166C11.4498 21.5855 10.2183 25.5638 10.289 29.7213C10.3563 33.6779 11.5986 37.431 13.8873 40.6172C12.9779 41.8647 13.0855 43.6277 14.2106 44.753C14.8329 45.3752 15.6502 45.6863 16.4676 45.6863C17.285 45.6863 18.1023 45.3752 18.7246 44.753C19.969 43.5085 19.969 41.4836 18.7246 40.2391ZM17.6591 43.6875C17.002 44.3445 15.933 44.3445 15.276 43.6875C14.619 43.0305 14.619 41.9614 15.276 41.3044C15.5943 40.9861 16.0175 40.8108 16.4675 40.8108C16.9176 40.8108 17.3408 40.9861 17.659 41.3044C18.3162 41.9615 18.3162 43.0305 17.6591 43.6875Z" fill="#083A5E"/>
<path d="M41.0202 43.987C40.7768 43.6498 40.3059 43.5739 39.9685 43.8176C37.8148 45.3738 35.3938 46.4047 32.7726 46.8818C32.1652 46.9924 31.5458 46.8296 31.0733 46.4353C30.6041 46.0439 30.3351 45.4688 30.3351 44.8576V39.3357H30.4008C31.2731 39.3357 31.9829 38.626 31.9829 37.7536V36.4818C34.5347 35.5077 36.3523 33.0347 36.3523 30.1449V26.5781C37.5664 26.2465 38.4617 25.1345 38.4617 23.8167C38.4617 22.366 37.3766 21.1646 35.9756 20.9795V16.2832C35.9756 15.0371 34.9618 14.0232 33.7156 14.0232C32.4694 14.0232 31.4555 15.0371 31.4555 16.2832V20.954H27.6888V16.2832C27.6888 15.0371 26.6749 14.0232 25.4287 14.0232C24.1825 14.0232 23.1687 15.0371 23.1687 16.2832V20.9795C21.7677 21.1646 20.6826 22.3659 20.6826 23.8167C20.6826 25.1345 21.5779 26.2465 22.792 26.5781V30.1449C22.792 33.0347 24.6096 35.5077 27.1614 36.4818V37.7537C27.1614 38.6261 27.8712 39.3357 28.7435 39.3357H28.8284V44.8576C28.8284 45.917 29.2948 46.9137 30.1079 47.5922C30.7569 48.1337 31.5657 48.4226 32.3965 48.4226C32.6112 48.4226 32.8272 48.4034 33.0424 48.3642C35.8864 47.8465 38.5136 46.7277 40.8508 45.0388C41.188 44.7951 41.2638 44.3242 41.0202 43.987ZM32.9623 16.2832C32.9623 15.8678 33.3002 15.5299 33.7156 15.5299C34.131 15.5299 34.469 15.8678 34.469 16.2832V20.954H32.9623V16.2832ZM24.6754 16.2832C24.6754 15.8678 25.0134 15.5299 25.4288 15.5299C25.8442 15.5299 26.1821 15.8678 26.1821 16.2832V20.954H24.6754V16.2832ZM22.1894 23.8167C22.1894 23.069 22.7977 22.4607 23.5454 22.4607H35.599C36.3467 22.4607 36.955 23.069 36.955 23.8167C36.955 24.5644 36.3467 25.1728 35.599 25.1728H23.5454C22.7977 25.1728 22.1894 24.5644 22.1894 23.8167ZM24.2988 30.1449V26.6795H34.8457V30.1449C34.8457 33.0527 32.48 35.4183 29.5722 35.4183C26.6644 35.4183 24.2988 33.0527 24.2988 30.1449ZM29.6008 37.829C29.5944 37.8289 29.5882 37.8281 29.5819 37.8281C29.5755 37.8281 29.5693 37.8289 29.563 37.829H28.7437C28.702 37.829 28.6682 37.7952 28.6682 37.7537V36.8646C28.964 36.9042 29.2658 36.925 29.5722 36.925C29.8787 36.925 30.1804 36.9042 30.4762 36.8646V37.7537C30.4762 37.7952 30.4425 37.829 30.4009 37.829H29.6008Z" fill="#083A5E"/>
<path d="M43.1909 41.945C42.8923 41.6663 42.4271 41.6771 42.1416 41.9657C42.1358 41.9715 42.13 41.9776 42.1245 41.9834C41.8406 42.2876 41.8571 42.7642 42.1612 43.0482C42.3064 43.1837 42.4909 43.2507 42.675 43.2507C42.8696 43.2507 43.0638 43.1758 43.2105 43.0275C43.2163 43.0216 43.2221 43.0156 43.2276 43.0098C43.5115 42.7056 43.495 42.229 43.1909 41.945Z" fill="#083A5E"/>
<path d="M48.8063 27.9834C48.4707 23.3716 46.4829 19.0287 43.2092 15.7548C39.9915 12.5369 35.6932 10.5672 31.1061 10.2087C26.5749 9.85439 22.0653 11.084 18.4064 13.6707C18.0667 13.9109 17.986 14.381 18.2261 14.7207C18.4662 15.0604 18.9365 15.1412 19.2762 14.901C26.2727 9.95473 36.1037 10.7797 42.1438 16.8202C48.3858 23.0626 49.1406 32.7563 43.9383 39.8697C43.6928 40.2056 43.7659 40.6769 44.1017 40.9225C44.2358 41.0206 44.3916 41.0679 44.5459 41.0679C44.778 41.0679 45.007 40.9609 45.1546 40.7591C47.8417 37.0847 49.1386 32.5476 48.8063 27.9834Z" fill="#083A5E"/>
<path d="M16.9093 15.8418C16.6138 15.549 16.1367 15.551 15.8438 15.8466L15.8316 15.8591C15.5387 16.1546 15.5408 16.6316 15.8363 16.9245C15.9832 17.07 16.1749 17.1427 16.3667 17.1427C16.5605 17.1427 16.7544 17.0683 16.9018 16.9197L16.914 16.9072C17.2069 16.6118 17.2048 16.1347 16.9093 15.8418Z" fill="#083A5E"/>
<path d="M31.2704 29.866C31.1354 29.6344 30.8875 29.492 30.6195 29.492H30.0811L31.0727 28.2395C31.3309 27.9133 31.2758 27.4395 30.9496 27.1813C30.6234 26.923 30.1495 26.9782 29.8913 27.3043L27.9332 29.7778C27.7539 30.0043 27.7199 30.3134 27.8457 30.5735C27.9715 30.8335 28.235 30.9987 28.5239 30.9987H29.3269L28.4044 32.6276C28.1993 32.9897 28.3266 33.4494 28.6886 33.6544C28.8059 33.7208 28.9333 33.7524 29.0592 33.7524C29.3219 33.7523 29.5769 33.6148 29.7155 33.3701L31.275 30.6166C31.4072 30.3834 31.4054 30.0976 31.2704 29.866Z" fill="#083A5E"/>
</g>
<defs>
<clipPath id="clip0">
<rect width="38.5714" height="38.5714" fill="white" transform="translate(10.2861 10)"/>
</clipPath>
</defs>
</svg>
