<svg width="59" height="59" viewBox="0 0 59 59" fill="none" xmlns="http://www.w3.org/2000/svg">
<circle cx="29.5" cy="29.5" r="29" fill="white" stroke="#CC9612"/>
<circle cx="31.285" cy="30.5714" r="18.4286" fill="#EBB11A"/>
<g clip-path="url(#clip0)">
<path d="M18.7236 40.2391C18.1207 39.6362 17.3191 39.3042 16.4666 39.3042C15.963 39.3042 15.4776 39.4209 15.0399 39.64C10.7396 33.5474 10.7247 25.1984 15.0763 19.091C15.3177 18.7521 15.2387 18.2817 14.8999 18.0403C14.561 17.7988 14.0906 17.8778 13.8492 18.2166C11.4488 21.5855 10.2174 25.5638 10.288 29.7213C10.3553 33.6779 11.5976 37.431 13.8863 40.6172C12.9769 41.8647 13.0845 43.6277 14.2097 44.753C14.8319 45.3752 15.6492 45.6863 16.4666 45.6863C17.284 45.6863 18.1013 45.3752 18.7236 44.753C19.9681 43.5085 19.9681 41.4836 18.7236 40.2391ZM17.6581 43.6875C17.001 44.3445 15.9321 44.3445 15.2751 43.6875C14.618 43.0305 14.618 41.9614 15.2751 41.3044C15.5933 40.9861 16.0165 40.8108 16.4666 40.8108C16.9166 40.8108 17.3398 40.9861 17.6581 41.3044C18.3152 41.9615 18.3152 43.0305 17.6581 43.6875Z" fill="#083A5E"/>
<path d="M41.0192 43.987C40.7758 43.6498 40.305 43.5739 39.9675 43.8176C37.8139 45.3738 35.3928 46.4047 32.7716 46.8818C32.1643 46.9924 31.5449 46.8296 31.0723 46.4353C30.6031 46.0439 30.3341 45.4688 30.3341 44.8576V39.3357H30.3999C31.2722 39.3357 31.9819 38.626 31.9819 37.7536V36.4818C34.5337 35.5077 36.3513 33.0347 36.3513 30.1449V26.5781C37.5654 26.2465 38.4607 25.1345 38.4607 23.8167C38.4607 22.366 37.3756 21.1646 35.9746 20.9795V16.2832C35.9746 15.0371 34.9608 14.0232 33.7146 14.0232C32.4684 14.0232 31.4545 15.0371 31.4545 16.2832V20.954H27.6878V16.2832C27.6878 15.0371 26.6739 14.0232 25.4277 14.0232C24.1816 14.0232 23.1677 15.0371 23.1677 16.2832V20.9795C21.7667 21.1646 20.6816 22.3659 20.6816 23.8167C20.6816 25.1345 21.5769 26.2465 22.791 26.5781V30.1449C22.791 33.0347 24.6086 35.5077 27.1604 36.4818V37.7537C27.1604 38.6261 27.8702 39.3357 28.7425 39.3357H28.8274V44.8576C28.8274 45.917 29.2938 46.9137 30.1069 47.5922C30.756 48.1337 31.5648 48.4226 32.3956 48.4226C32.6102 48.4226 32.8262 48.4034 33.0414 48.3642C35.8854 47.8465 38.5126 46.7277 40.8498 45.0388C41.1871 44.7951 41.2629 44.3242 41.0192 43.987ZM32.9613 16.2832C32.9613 15.8678 33.2993 15.5299 33.7147 15.5299C34.1301 15.5299 34.468 15.8678 34.468 16.2832V20.954H32.9613V16.2832ZM24.6745 16.2832C24.6745 15.8678 25.0124 15.5299 25.4278 15.5299C25.8432 15.5299 26.1812 15.8678 26.1812 16.2832V20.954H24.6745V16.2832ZM22.1884 23.8167C22.1884 23.069 22.7967 22.4607 23.5444 22.4607H35.598C36.3457 22.4607 36.9541 23.069 36.9541 23.8167C36.9541 24.5644 36.3457 25.1728 35.598 25.1728H23.5444C22.7967 25.1728 22.1884 24.5644 22.1884 23.8167ZM24.2978 30.1449V26.6795H34.8447V30.1449C34.8447 33.0527 32.479 35.4183 29.5712 35.4183C26.6635 35.4183 24.2978 33.0527 24.2978 30.1449ZM29.5998 37.829C29.5935 37.8289 29.5872 37.8281 29.5809 37.8281C29.5746 37.8281 29.5683 37.8289 29.562 37.829H28.7427C28.701 37.829 28.6672 37.7952 28.6672 37.7537V36.8646C28.9631 36.9042 29.2648 36.925 29.5712 36.925C29.8777 36.925 30.1794 36.9042 30.4753 36.8646V37.7537C30.4753 37.7952 30.4415 37.829 30.3999 37.829H29.5998Z" fill="#083A5E"/>
<path d="M43.1899 41.945C42.8913 41.6663 42.4261 41.6771 42.1406 41.9657C42.1348 41.9715 42.129 41.9776 42.1235 41.9834C41.8396 42.2876 41.8561 42.7642 42.1602 43.0482C42.3055 43.1837 42.49 43.2507 42.6741 43.2507C42.8687 43.2507 43.0628 43.1758 43.2095 43.0275C43.2153 43.0216 43.2211 43.0156 43.2266 43.0098C43.5105 42.7056 43.494 42.229 43.1899 41.945Z" fill="#083A5E"/>
<path d="M48.8054 27.9834C48.4697 23.3716 46.4819 19.0287 43.2082 15.7548C39.9905 12.5369 35.6922 10.5672 31.1051 10.2087C26.5739 9.85439 22.0643 11.084 18.4054 13.6707C18.0657 13.9109 17.985 14.381 18.2252 14.7207C18.4653 15.0604 18.9355 15.1412 19.2752 14.901C26.2718 9.95473 36.1027 10.7797 42.1428 16.8202C48.3848 23.0626 49.1396 32.7563 43.9374 39.8697C43.6918 40.2056 43.7649 40.6769 44.1008 40.9225C44.2349 41.0206 44.3906 41.0679 44.5449 41.0679C44.7771 41.0679 45.0061 40.9609 45.1536 40.7591C47.8407 37.0847 49.1377 32.5476 48.8054 27.9834Z" fill="#083A5E"/>
<path d="M16.9083 15.8418C16.6128 15.549 16.1358 15.551 15.8429 15.8466L15.8306 15.8591C15.5377 16.1546 15.5399 16.6316 15.8353 16.9245C15.9822 17.07 16.174 17.1427 16.3657 17.1427C16.5595 17.1427 16.7534 17.0683 16.9008 16.9197L16.9131 16.9072C17.206 16.6118 17.2038 16.1347 16.9083 15.8418Z" fill="#083A5E"/>
<path d="M31.2694 29.866C31.1344 29.6344 30.8865 29.492 30.6185 29.492H30.0801L31.0717 28.2395C31.33 27.9133 31.2748 27.4395 30.9486 27.1813C30.6224 26.923 30.1486 26.9782 29.8903 27.3043L27.9322 29.7778C27.7529 30.0043 27.7189 30.3134 27.8447 30.5735C27.9705 30.8335 28.234 30.9987 28.5229 30.9987H29.326L28.4034 32.6276C28.1984 32.9897 28.3257 33.4494 28.6876 33.6544C28.805 33.7208 28.9323 33.7524 29.0582 33.7524C29.3209 33.7523 29.5759 33.6148 29.7145 33.3701L31.2741 30.6166C31.4062 30.3834 31.4044 30.0976 31.2694 29.866Z" fill="#083A5E"/>
</g>
<defs>
<clipPath id="clip0">
<rect width="38.5714" height="38.5714" fill="white" transform="translate(10.2852 10)"/>
</clipPath>
</defs>
</svg>
