<svg width="59" height="59" viewBox="0 0 59 59" fill="none" xmlns="http://www.w3.org/2000/svg">
<circle cx="29.5" cy="29.5" r="29" fill="white" stroke="#CC9612"/>
<path d="M45.8769 46.5H15.2266V29.8169C15.2266 27.7995 17.1665 28.3297 18.1364 28.847V24.1912L22.4042 25.7431V20.1174H38.6993V25.7431L43.161 24.1912V28.847C45.1785 27.6055 45.8122 28.9763 45.8769 29.8169V46.5Z" fill="#EBB11A"/>
<rect x="22.4043" y="12.9399" width="15.9071" height="4.26777" fill="#EBB11A"/>
<g clip-path="url(#clip0)">
<path d="M17.2019 33.9149C17.2019 34.2916 16.8966 34.5969 16.5199 34.5969C16.1432 34.5969 15.8379 34.2916 15.8379 33.9149C15.8379 33.5382 16.1432 33.2329 16.5199 33.2329C16.8966 33.2329 17.2019 33.5382 17.2019 33.9149Z" fill="#083A5E"/>
<path d="M45.7771 44.5541H45.0951V28.4591C45.0951 27.3308 44.1774 26.4131 43.0491 26.4131H42.1626V23.0031C42.1626 22.7857 42.0589 22.5811 41.8834 22.4527C41.7078 22.3243 41.4816 22.2873 41.2741 22.3531L37.866 23.4352V18.9111C37.866 18.5344 37.5607 18.2291 37.184 18.2291H35.138V16.8651H37.184C37.5607 16.8651 37.866 16.5599 37.866 16.1832V11.682C37.866 11.3053 37.5607 11 37.184 11H20.8161C20.4394 11 20.1341 11.3053 20.1341 11.682V16.1832C20.1341 16.5599 20.4394 16.8651 20.8161 16.8651H22.8621V18.2291H20.8161C20.4394 18.2291 20.1341 18.5344 20.1341 18.9111V23.4352L16.726 22.3531C16.5185 22.2873 16.2923 22.3243 16.1168 22.4527C15.9412 22.5811 15.8376 22.7857 15.8376 23.0031V26.4131H14.951C13.8228 26.4131 12.905 27.3308 12.905 28.4591V44.5541H12.223C11.8463 44.5541 11.541 44.8594 11.541 45.2361C11.541 45.6128 11.8463 45.9181 12.223 45.9181H45.7771C46.1538 45.9181 46.4591 45.6128 46.4591 45.2361C46.4591 44.8594 46.1538 44.5541 45.7771 44.5541ZM43.0491 27.7771C43.4253 27.7771 43.7311 28.0829 43.7311 28.4591V44.5541H42.1626V27.7771H43.0491ZM40.7986 23.9352V44.5541H37.866V24.8661L40.7986 23.9352ZM21.4981 12.364H36.502V15.5012H21.4981V12.364ZM24.2261 16.8651H33.774V18.2291H24.2261V16.8651ZM36.502 19.5931V44.5541H33.774V38.007C33.774 37.6303 33.4687 37.325 33.092 37.325H24.9081C24.5314 37.325 24.2261 37.6303 24.2261 38.007V44.5541H21.4981C21.4981 43.4256 21.4981 20.4957 21.4981 19.5931H36.502ZM29.6821 38.689H32.41V44.5541H29.6821V38.689ZM28.3181 44.5541H25.5901V38.689H28.3181V44.5541ZM14.269 28.4591C14.269 28.0829 14.5748 27.7771 14.951 27.7771H15.8376V31.187C15.8376 31.5637 16.1429 31.869 16.5196 31.869C16.8963 31.869 17.2016 31.5637 17.2016 31.187V23.9352L20.1341 24.8661V44.5541H17.2016V36.643C17.2016 36.2663 16.8963 35.961 16.5196 35.961C16.1429 35.961 15.8376 36.2663 15.8376 36.643V44.5541H14.269V28.4591Z" fill="#083A5E"/>
<path d="M23.5443 25.049H27.6363C28.013 25.049 28.3183 24.7437 28.3183 24.367V21.639C28.3183 21.2623 28.013 20.957 27.6363 20.957H23.5443C23.1676 20.957 22.8623 21.2623 22.8623 21.639V24.367C22.8623 24.7437 23.1676 25.049 23.5443 25.049ZM24.2263 22.321H26.9543V23.685H24.2263V22.321Z" fill="#083A5E"/>
<path d="M30.3636 25.049H34.4556C34.8323 25.049 35.1376 24.7437 35.1376 24.367V21.639C35.1376 21.2623 34.8323 20.957 34.4556 20.957H30.3636C29.9869 20.957 29.6816 21.2623 29.6816 21.639V24.367C29.6816 24.7437 29.9869 25.049 30.3636 25.049ZM31.0456 22.321H33.7736V23.685H31.0456V22.321Z" fill="#083A5E"/>
<path d="M23.5443 30.5051H27.6363C28.013 30.5051 28.3183 30.1998 28.3183 29.8231V27.0951C28.3183 26.7184 28.013 26.4131 27.6363 26.4131H23.5443C23.1676 26.4131 22.8623 26.7184 22.8623 27.0951V29.8231C22.8623 30.1998 23.1676 30.5051 23.5443 30.5051ZM24.2263 27.7771H26.9543V29.1411H24.2263V27.7771Z" fill="#083A5E"/>
<path d="M30.3636 30.5051H34.4556C34.8323 30.5051 35.1376 30.1998 35.1376 29.8231V27.0951C35.1376 26.7184 34.8323 26.4131 34.4556 26.4131H30.3636C29.9869 26.4131 29.6816 26.7184 29.6816 27.0951V29.8231C29.6816 30.1998 29.9869 30.5051 30.3636 30.5051ZM31.0456 27.7771H33.7736V29.1411H31.0456V27.7771Z" fill="#083A5E"/>
<path d="M23.5443 35.9611H27.6363C28.013 35.9611 28.3183 35.6558 28.3183 35.2791V32.5511C28.3183 32.1744 28.013 31.8691 27.6363 31.8691H23.5443C23.1676 31.8691 22.8623 32.1744 22.8623 32.5511V35.2791C22.8623 35.6558 23.1676 35.9611 23.5443 35.9611ZM24.2263 33.2331H26.9543V34.5971H24.2263V33.2331Z" fill="#083A5E"/>
<path d="M30.3636 35.9611H34.4556C34.8323 35.9611 35.1376 35.6558 35.1376 35.2791V32.5511C35.1376 32.1744 34.8323 31.8691 34.4556 31.8691H30.3636C29.9869 31.8691 29.6816 32.1744 29.6816 32.5511V35.2791C29.6816 35.6558 29.9869 35.9611 30.3636 35.9611ZM31.0456 33.2331H33.7736V34.5971H31.0456V33.2331Z" fill="#083A5E"/>
</g>
<defs>
<clipPath id="clip0">
<rect width="34.9181" height="34.9181" fill="white" transform="translate(11.541 11)"/>
</clipPath>
</defs>
</svg>
